<?xml version="1.0" encoding="UTF-8"?>
<svg width="108px" height="108px" viewBox="0 0 108 108" version="1.1" xmlns="http://www.w3.org/2000/svg" xmlns:xlink="http://www.w3.org/1999/xlink">
    <!-- Generator: Sketch 63.1 (92452) - https://sketch.com -->
    <title>1_inch</title>
    <desc>Created with Sketch.</desc>
    <defs>
        <polygon id="path-1" points="0 0.22183294 101.985955 0.22183294 101.985955 106.346878 0 106.346878"></polygon>
    </defs>
    <g id="1_inch" stroke="none" stroke-width="1" fill="none" fill-rule="evenodd">
        <g id="Group-48" transform="translate(3.000000, 0.000000)">
            <g id="Group-3" transform="translate(0.000000, 0.193585)">
                <mask id="mask-2" fill="white">
                    <use xlink:href="#path-1"></use>
                </mask>
                <g id="Clip-2"></g>
                <path d="M44.1288031,79.4813716 C45.5989656,79.2553845 46.5731196,78.1740528 47.8289267,77.7710978 C48.6875946,77.495676 49.2164211,76.8497018 49.0323911,75.8751324 C48.8338216,74.8257878 48.0150337,74.4859763 47.0824214,74.3493039 C46.0982974,74.2051541 45.5104817,74.7073938 45.2387986,75.6013722 C44.8703233,76.8131451 44.5400664,78.0365496 44.1288031,79.4813716 M49.204374,20.662409 C49.8960441,20.8672099 50.1577571,20.2378524 50.5619583,19.935013 C52.6706175,18.3543495 54.7967242,16.732975 57.3370022,15.9843927 C60.396552,15.0829367 61.740843,12.4454511 64.0119305,10.3334685 C58.0224411,10.5673486 50.3355558,16.0537674 49.204374,20.662409 M23.1714061,21.4492098 C27.4003561,24.8626953 31.4585696,28.1598639 35.5487702,31.4167371 C36.1644189,31.9073451 36.9449884,32.5745056 37.7176649,31.676373 C38.4795406,30.7907029 38.5281445,29.7712684 37.7226499,28.8639966 C37.3670526,28.4631187 36.8897379,28.1415856 36.4145003,27.8811188 C32.5502868,25.7616588 28.6719491,23.6671238 24.8010889,21.5597108 C24.3761168,21.3283233 23.977316,21.0242377 23.1714061,21.4492098 M37.6424744,7.02176031 C34.912766,10.7713186 32.3679185,14.5914978 34.3590145,19.4992401 C35.3431386,21.9244474 38.2950952,23.9737019 40.4270178,23.8129353 C36.2292241,18.7170089 36.2612112,13.0158193 37.6424744,7.02176031 M98.6859976,57.9045871 C99.7046013,36.5982394 87.4547703,21.7732354 72.8441217,21.4271926 C87.0613699,29.720172 95.6646662,41.7847268 98.6859976,57.9045871 M76.4507764,62.3778027 C78.1971915,64.0087317 80.118082,65.4435838 81.6829597,67.2809753 C85.2115159,71.4251802 87.0351986,76.2934578 87.7779651,81.760352 C101.530777,65.4307058 94.6198912,38.2786032 71.5712825,28.7111229 C72.2587985,31.5700261 72.717004,34.3616317 73.6209524,36.9999481 C74.6765283,40.0815151 74.2685883,42.702384 72.4557064,45.3706106 C71.6576894,46.5449958 70.9672655,47.2956552 69.5457069,46.94712 C68.1644437,46.6081393 67.2958057,47.1041478 66.8089364,48.4023274 C65.610457,51.5968879 63.1910655,52.8614188 59.9055286,52.7700269 C58.9554688,52.7438556 58.186531,53.0163695 57.673075,53.9473201 C55.6408526,57.6295807 53.5446559,61.2769463 51.5041252,64.9546374 C50.8249176,66.1788727 51.8738468,65.601027 52.2996497,65.6579392 C52.8326304,65.7941961 53.3980136,65.8581704 53.8931912,66.0791725 C55.8219746,66.940333 57.0258545,66.2831425 58.1117558,64.5417124 C59.1262053,62.9149375 60.5760124,61.5669077 61.7242263,60.0153234 C63.9408941,57.0205787 66.5198058,55.7523091 70.5306617,56.2242234 C77.6999368,57.0679363 82.801679,52.7467636 83.7916189,45.8387861 C83.9299529,44.8737713 83.9677559,43.8950477 84.0799186,42.6060072 C88.4958065,49.6469182 83.7043812,58.134313 74.1543485,60.9163639 C74.517008,62.0433916 75.8376202,61.6603767 76.4507764,62.3778027 M46.6836206,80.6358168 C44.1288031,82.0727459 42.0463152,84.0522103 39.8961143,86.0948181 C42.9822508,87.3082526 45.4186744,86.7499315 47.6814535,84.8377647 C48.886995,83.8187456 50.3127078,83.061855 51.6299967,82.173277 C54.9080561,79.9620096 55.9520003,77.4624426 54.9325658,74.2961305 C53.6094611,70.1888978 50.8469347,68.0569752 46.9881217,68.128427 C46.3458862,68.1404741 45.6583703,68.3677075 44.992456,67.97223 C45.4739249,67.0063844 46.3101603,66.4783887 47.1256249,66.3545943 C50.4547806,65.847785 51.2702452,63.1874514 52.2817868,60.6546509 C53.670112,58.997966 54.6426044,57.0488271 55.485071,55.123367 C56.7832507,52.1560399 58.9155887,51.0144726 61.959768,51.1307895 C63.3564017,51.1843784 64.2329326,50.567068 64.9283414,49.338263 C66.5592705,46.4560965 68.323964,43.6499513 70.0329916,40.8122345 C70.31506,40.3436435 70.7088758,39.9062089 70.5672185,39.2947144 C69.8223749,36.0723209 69.1909403,32.8241715 68.1586278,29.6699065 C67.7270091,28.3505406 67.0166452,28.4818125 65.9810094,28.8739666 C63.0519006,29.9827159 60.069203,30.3665616 56.8414091,29.3060008 C69.4538996,23.2018562 69.7172743,14.9296477 67.6626194,8.44955023 C67.2526023,8.8786765 66.8679257,9.26293767 66.5027737,9.66506181 C61.4350958,15.2461958 56.3931737,20.8522548 50.9761296,26.1023011 C50.1432175,26.9094573 49.3647251,27.9450931 48.1404898,28.0805192 C46.8493722,28.2234228 46.2810811,26.9277356 45.400396,26.1359499 C44.116756,28.4510716 42.9830816,30.6648314 41.6952874,32.7847069 C38.417228,38.1813955 36.3322476,43.5955316 39.3307311,49.9750981 C40.4112319,52.2740185 39.7773049,54.952215 37.7787313,57.2856151 C37.2864616,55.0087118 36.8897379,52.9324552 35.4054512,51.1536375 C34.641083,54.0482666 33.9751688,56.799992 33.1837984,59.5147453 C31.8382612,64.1292028 31.2176275,69.1142127 27.7268743,72.7727945 C24.6818641,75.9640317 24.6764636,79.3592389 25.9937525,83.2213753 C27.282793,86.9991819 32.3396701,88.6139097 35.4403463,86.0682314 C39.6888209,84.2948141 41.8776557,81.0645277 42.7454628,76.569295 C43.6415184,71.9270045 45.2068115,71.12151 49.7531405,72.2227818 C49.1320913,72.2992186 48.4628538,72.1131116 47.7271494,72.6290601 C49.755633,73.0129059 50.9291874,74.0975609 51.0828919,76.0616548 C51.2374272,78.0411192 49.6875045,78.6729692 48.3311664,79.4655857 C47.751659,79.804151 47.2311409,80.2428319 46.6836206,80.6358168 M89.5530441,21.4030984 C89.7013481,21.5514025 89.8637763,21.6955523 90.0220504,21.4392398 C90.0453138,21.4014368 89.883301,21.2489785 89.8068641,21.1492783 C84.8509335,16.2785083 79.2224419,12.5106716 72.447398,10.6599867 C70.1077667,10.0210746 70.1459851,10.1182823 70.1115055,12.5264575 C70.0907346,13.9741874 70.4546403,14.7065685 71.9771454,14.7875749 C72.7930254,14.8311937 73.5947811,15.1298789 74.403599,15.3089238 C79.7911484,16.501172 84.5863125,19.164829 89.5530441,21.4030984 M53.9966302,4.21146098 C50.0987678,5.22341799 47.0263401,7.46168743 44.7801777,10.7434856 C42.346662,14.2986285 42.7359082,18.9849532 45.6567086,22.3166015 C46.7484258,15.4389495 48.6963184,9.03653514 53.9862447,4.20149096 M43.6149316,105.920618 C28.2831183,103.298087 16.3257412,95.6244953 7.82671478,82.5774782 C-3.64130048,64.9729157 -2.38258548,39.9743374 10.7853182,24.061355 C11.9875364,24.9079758 10.7990269,25.5377487 10.4957722,26.0969007 C5.08911352,36.0731517 2.17246731,46.6413727 3.72322081,58.005949 C6.35572145,77.2983527 16.5014628,91.0598879 34.9730016,97.8303622 C44.8906788,101.465681 55.0297735,101.311976 64.4369025,95.830127 C72.0647985,91.3851598 76.5114273,84.5291095 77.5167377,75.7355521 C78.0783821,70.8228248 76.9891575,66.2087828 73.0248283,62.7475242 C72.2521518,62.0728862 71.448319,61.4323125 70.3698952,62.5634943 C67.7909834,65.2682776 65.0712451,67.8380502 62.4773782,70.5291247 C60.6242008,72.4516768 59.3459612,74.5844302 59.2358756,77.4686739 C59.1174816,80.5714271 57.5638202,83.1254138 54.8889469,84.8822144 C52.8666946,86.2107196 50.7742367,87.4490791 48.8583312,88.9167491 C46.3487941,90.8393012 43.618255,91.404269 40.6559129,90.5514169 C39.1059902,90.1052585 37.7454979,90.2764105 36.5358022,91.1732969 C35.2405304,92.1333267 33.9190874,92.2284573 32.423169,91.9085859 C29.6269939,91.3112155 27.0306346,90.2020508 24.4953416,88.9312887 C24.0790933,88.7227491 23.6520441,88.388338 23.411102,87.9999227 C21.389265,84.7364029 20.8496377,81.0279709 20.3980789,77.3261857 C20.1201646,75.0451282 21.7864042,73.4889743 22.9483269,71.8165035 C24.838061,69.0967652 26.8424504,66.5141146 27.6496066,63.1546334 C28.8746728,58.053722 30.3718374,53.0180312 31.7676402,47.9582461 C32.2208607,46.3165162 32.4190148,44.6274287 31.6928651,43.0779214 C30.5114177,40.5563373 30.6588909,38.1332071 31.7767794,35.6851518 C32.1182526,34.9369849 32.2229378,34.3254903 31.496788,33.6579144 C26.1038381,28.6961679 9.83858169,13.0590227 7.54630798,10.7655027 C7.27420952,10.4934043 6.79024814,10.2275371 7.02329735,9.76143866 C7.32821379,9.15160579 7.86784111,9.48975562 8.29613655,9.62767423 C8.75268037,9.77431661 27.4913326,18.641403 29.9418803,19.3870774 C28.8555636,17.0557544 29.221131,14.7485256 29.3968526,12.453344 C30.1279874,11.2303549 30.8591222,10.0073658 31.5898415,8.78437672 C31.9745181,8.40053096 32.3471476,8.00422268 32.7447022,7.63408569 C35.9255539,4.6750669 39.3070523,2.036335 43.6078695,0.876904782 C43.0960752,1.94494315 42.5842808,3.01298152 42.0724865,4.08143531 C42.1489233,4.24386355 42.2253601,4.4067072 42.3022124,4.56913544 C51.281046,-1.68040529 64.3774978,0.314844917 65.6017332,1.43688756 C63.8549026,2.51988096 61.9099179,3.11268172 60.6138154,4.95256579 C61.197477,4.95256579 61.5293955,4.96212039 61.8604833,4.95090412 C73.4539546,4.56664294 83.4879487,8.06778155 91.3605256,16.866324 C94.9605335,20.8896424 97.3674625,25.6075389 99.117201,30.6810327 C99.2659204,31.1109898 99.6053165,31.6439704 99.0602888,31.9771353 C98.6523488,32.2263857 98.2971668,31.8072295 97.9694024,31.5700261 C97.2756552,31.0686172 96.6076639,30.5173582 95.6252015,30.455461 C95.7170088,30.6851869 95.7527347,30.8064888 95.8108931,30.916159 C111.965233,61.2757001 95.0120453,97.8831202 61.3839994,105.325325 C59.7518241,105.686322 50.0431019,107.020643 43.6149316,105.920618" id="Fill-1" fill="#203551" mask="url(#mask-2)"></path>
            </g>
            <path d="M18.373251,56.8299852 C18.6557349,56.513437 18.8605357,56.3854884 18.9054008,56.2151673 C19.0624286,55.6186278 19.1945313,55.0117028 19.2834307,54.4010391 C20.306604,47.3821452 23.0874087,41.1616836 27.8019818,35.850571 C28.5509795,35.0072735 28.4795277,34.4871708 27.6665557,33.8528283 C27.2324444,33.5142631 26.856907,33.1013381 26.4564445,32.7199848 C24.6921664,31.0379594 24.6119908,30.9930943 23.3694771,33.1333252 C19.1579746,40.3890071 17.2192212,48.1514984 18.373251,56.8299852 M10.0869183,66.0564076 C10.5081516,65.1848617 10.327445,64.5783522 10.2630553,63.9876285 C8.92333388,51.7062258 11.9176632,40.5813454 19.2057476,30.6212956 C21.2840813,27.7815017 21.333516,27.817643 18.6258248,25.4048982 C16.7618465,23.7436437 16.7497994,23.7361661 15.3992771,25.87432 C10.4333765,33.7344343 8.19178367,42.3996278 7.98116701,51.6144186 C7.87108137,56.4448931 8.62174078,61.1823142 10.0869183,66.0564076 M10.7852351,24.2550226 C12.5511748,22.6739436 13.290618,20.2121796 15.3751829,18.9040299 C20.7448694,23.8911169 26.1037551,28.8898355 31.4971203,33.8511666 C32.2232701,34.519158 32.1181695,35.1306525 31.7766963,35.8788194 C30.6588078,38.3268747 30.5117501,40.7495895 31.6931974,43.2715891 C32.4189318,44.8210963 32.2207776,46.5097684 31.7679725,48.1519138 C30.3721698,53.2112834 28.8750051,58.2473896 27.6495235,63.348301 C26.8423674,66.7077823 24.837978,69.2904328 22.9482438,72.0101711 C21.7863211,73.6822265 20.1200815,75.2387959 20.3984112,77.5194379 C20.84997,81.2212231 21.3891819,84.9300705 23.4114343,88.1931749 C23.651961,88.5820057 24.0790102,88.9164168 24.4956739,89.1249563 C27.0309669,90.3957184 29.6269108,91.5044677 32.4230859,92.1022535 C33.9190043,92.422125 35.2404474,92.3269944 36.5357191,91.3665491 C37.7454148,90.4700782 39.1059071,90.2989262 40.6558298,90.7450845 C43.6181719,91.5979367 46.3491265,91.0329689 48.8582481,89.1104167 C50.7741536,87.6423313 52.8666115,86.4039718 54.8888638,85.075882 C57.5637371,83.3190815 59.1173985,80.7650947 59.2357925,77.6623415 C59.3458781,74.7780979 60.6241177,72.6453445 62.4772952,70.7227923 C65.071162,68.0317178 67.7913157,65.4619452 70.3698121,62.7571619 C71.4482359,61.6259801 72.2520687,62.2665539 73.0251607,62.9411919 C76.9890744,66.402035 78.078299,71.0164925 77.5166546,75.9292197 C76.5113443,84.7227772 72.0647154,91.5788275 64.4368195,96.0237946 C55.0301058,101.505644 44.8905957,101.658933 34.9733339,98.0240298 C16.5013797,91.2535556 6.35563836,77.4920203 3.72313772,58.1996166 C2.17238423,46.8350403 5.08903043,36.2668193 10.4956891,26.2905683 C10.7989438,25.7314164 11.9874533,25.1016434 10.7852351,24.2550226" id="Fill-4" fill="#E9F0FC"></path>
            <path d="M32.0272761,73.4078017 C31.8461541,73.3496433 31.6646167,73.2919002 31.4834946,73.2337418 C30.3755762,74.7649707 29.2053451,76.255904 28.1834181,77.8423834 C27.5951869,78.7554711 27.763431,79.8476037 28.7546171,80.3436122 C29.9834221,80.9580146 30.9862399,80.1961389 31.8353533,79.3083918 C32.6923595,78.4123362 33.5323337,77.0493515 32.6017985,76.2496728 C31.4909722,75.2950434 31.932561,74.41602 32.0272761,73.4078017 M57.4657816,24.0429104 C62.71292,23.7919983 66.6132748,19.3561703 65.6141957,15.0009333 C62.9430612,17.9649371 60.3334086,20.860397 57.4657816,24.0429104 M41.7131504,44.453618 C40.796324,46.6299902 40.6264182,47.8401014 40.9791077,49.2604138 C41.5731547,51.653634 42.7579254,52.1550429 44.9754239,51.0059981 C45.4535695,50.7579939 46.0160447,50.6641095 46.5465329,50.5249446 C49.7074446,49.6953559 52.6735255,48.4204396 55.3305357,46.5111808 C57.4977688,44.9537807 58.347713,41.7492501 56.3744799,40.2450234 C53.5118379,38.0628353 55.2349897,36.4273367 56.1127669,34.4852599 C56.2186983,34.2509644 56.4467625,34.0183306 56.1605399,33.7013671 C55.3670925,34.0150073 54.9711996,34.776883 54.4448656,35.3626216 C51.4484593,38.6967624 48.5135347,42.0865691 45.5100662,45.4136478 C44.7876552,46.2141573 44.0835226,47.6033134 43.0474713,47.4055747 C41.9133816,47.1887268 42.2216214,45.5490739 41.7131504,44.453618 M35.4403463,86.2616497 C32.3396701,88.8077435 27.282793,87.1930157 25.9937525,83.4147937 C24.6764636,79.5530727 24.6818641,76.1574501 27.7268743,72.9662129 C31.2176275,69.3076311 31.8382612,64.3230366 33.1837984,59.7081637 C33.9751688,56.9934104 34.641083,54.2421004 35.4054512,51.3474713 C36.8897379,53.126289 37.2864616,55.2025456 37.7787313,57.4794489 C39.7773049,55.1460488 40.4112319,52.4678523 39.3307311,50.1689319 C36.3322476,43.78895 38.417228,38.3748139 41.6952874,32.9781252 C42.9830816,30.8582498 44.116756,28.6449054 45.4008114,26.3297837 C46.2810811,27.121154 46.8493722,28.4168412 48.1404898,28.274353 C49.3647251,28.1389269 50.1432175,27.1032911 50.9761296,26.2957195 C56.3931737,21.0456732 61.4350958,15.4400296 66.5027737,9.85889561 C66.8679257,9.45677148 67.2526023,9.07209488 67.6626194,8.64296861 C69.7176897,15.1234815 69.4538996,23.39569 56.8414091,29.4998346 C60.069203,30.55998 63.0519006,30.1761343 65.9810094,29.067385 C67.0166452,28.6756463 67.7270091,28.5439589 68.1586278,29.8633249 C69.1909403,33.0175899 69.8223749,36.2657393 70.5672185,39.4881327 C70.7088758,40.1000427 70.31506,40.5370619 70.0329916,41.0056528 C68.323964,43.8433697 66.5592705,46.6495149 64.9283414,49.5316814 C64.2329326,50.7609018 63.3564017,51.3777968 61.959768,51.3246233 C58.9155887,51.207891 56.7836661,52.3494583 55.485071,55.3167854 C54.6426044,57.2426609 53.670112,59.1913843 52.2817868,60.8480693 C45.3763018,62.0257779 40.1823369,65.4400942 37.818196,72.7240245 C36.8157936,71.0220591 36.7476651,69.532372 35.3792799,68.4539481 C35.3792799,71.3797335 35.300766,74.040898 35.4004662,76.6950003 C35.5072285,79.5318864 34.2144492,81.4187126 31.8050278,82.7139844 C31.05603,83.1169393 30.1666212,83.3412648 29.4774436,84.2252732 C31.5615931,84.9996114 33.3607663,86.0144763 35.4403463,86.2616497" id="Fill-6" fill="#FAFAFB"></path>
            <path d="M52.2994835,65.8516484 C51.8736806,65.7947362 50.8247514,66.3725819 51.503959,65.1483465 C53.5449052,61.4706555 55.6406864,57.8232899 57.6729088,54.1410293 C58.1867802,53.2100787 58.9553026,52.9375648 59.9057778,52.9637361 C63.1913147,53.0547125 65.6107062,51.7901817 66.8087703,48.5960366 C67.296055,47.2978569 68.1646929,46.8018485 69.5459561,47.1404137 C70.9675148,47.4893644 71.6579386,46.7382896 72.4559556,45.5639043 C74.2688376,42.8960932 74.6767775,40.2752243 73.6207863,37.1936573 C72.7168378,34.5549254 72.2590477,31.7637353 71.5711164,28.9048321 C94.6201404,38.4723124 101.53061,65.6239996 87.7782144,81.9540611 C87.0350325,76.487167 85.2113497,71.6188894 81.6827935,67.4742691 C80.1183313,65.6368775 78.1974408,64.2024409 76.4506102,62.5715118 C77.244473,62.4348395 77.9506828,62.6845054 78.626567,63.0646124 C82.4346992,65.2073358 85.5860563,68.0163889 87.7362572,71.885172 C88.177846,72.6798657 88.3282271,73.6735443 89.1316446,74.3336427 C93.9554725,62.4053448 90.856458,46.7112875 83.7789902,39.8024792 C83.68926,39.9935712 83.5633885,40.1593228 83.5322322,40.3408602 C81.8547764,50.1426359 75.0136811,54.4480228 66.5948302,53.4518517 C64.3083724,53.1814149 62.0663642,53.8161728 59.8455423,54.3304597 C59.2460948,54.4692091 58.6017823,54.6266523 58.2607245,55.2177914 C56.2318255,58.7392855 53.9885711,62.1403085 52.2994835,65.8516484" id="Fill-8" fill="#FAFAFB"></path>
            <path d="M52.2994835,65.8516484 C53.9885711,62.1403085 56.2318255,58.7392855 58.2607245,55.2177914 C58.6017823,54.6266523 59.2460948,54.4692091 59.8455423,54.3304597 C62.0663642,53.8161728 64.3083724,53.1814149 66.5948302,53.4518517 C75.0136811,54.4480228 81.8547764,50.1426359 83.5322322,40.3408602 C83.5633885,40.1593228 83.68926,39.9935712 83.7789902,39.8024792 C90.856458,46.7112875 93.9554725,62.4053448 89.1316446,74.3336427 C88.3282271,73.6735443 88.177846,72.6798657 87.7362572,71.885172 C85.5860563,68.0163889 82.4346992,65.2073358 78.626567,63.0646124 C77.9506828,62.6845054 77.244473,62.4348395 76.4506102,62.5715118 C75.837454,61.8536704 74.5172572,62.2371008 74.1541823,61.1100731 C83.704215,58.3280222 88.4956404,49.8406274 84.0797524,42.7997164 C83.9680051,44.0883414 83.9297867,45.0674804 83.7914527,46.0320799 C82.8019282,52.9404727 77.6997706,57.2616455 70.530911,56.4179325 C66.5196397,55.9456029 63.9407279,57.2142879 61.7244756,60.2090326 C60.5758462,61.7606169 59.1260392,63.1086467 58.1115897,64.7354216 C57.0261038,66.4764363 55.8218084,67.1336267 53.8934405,66.2728817 C53.3982628,66.0518796 52.8328796,65.9879053 52.2994835,65.8516484" id="Fill-10" fill="#93A5C2"></path>
            <path d="M35.4403878,86.2617744 C33.3608078,86.0141855 31.5616347,84.999736 29.4774851,84.2253978 C30.1666627,83.3413894 31.0560716,83.117064 31.8050693,82.714109 C34.2140754,81.4184218 35.5068546,79.532011 35.4005077,76.695125 C35.3008075,74.0410226 35.378906,71.3798582 35.378906,68.4536574 C36.7477066,69.5320812 36.8158351,71.0221837 37.8182375,72.7237337 C40.1823785,65.4402189 45.3763433,62.0259025 52.2814129,60.8481939 C51.2702867,63.3809944 50.4548222,66.041328 47.1256664,66.5481373 C46.3102019,66.6719317 45.4739665,67.1999274 44.9924976,68.165773 C45.6584118,68.5612505 46.3459278,68.3340171 46.9881632,68.32197 C50.8469763,68.2505182 53.6095026,70.3824408 54.9321919,74.4896735 C55.9520418,77.6559856 54.9080977,80.1555527 51.6296228,82.36682 C50.312334,83.255398 48.8870366,84.0122886 47.681495,85.0313078 C45.4187159,86.9434745 42.9822923,87.5017956 39.8961558,86.2883611 C42.0463567,84.2457533 44.1288446,82.2662889 46.6836622,80.8293598 C47.6229211,80.9124433 48.4093064,80.4517453 49.2293406,80.1123492 C50.8033574,79.4601438 52.1854514,78.6878827 52.3258626,76.6818316 C52.4704278,74.61056 51.5112289,73.2949328 49.753182,72.4163248 C45.206853,71.315053 43.6415599,72.1205475 42.7455044,76.762838 C41.8776972,81.2580707 39.6888625,84.4883571 35.4403878,86.2617744" id="Fill-12" fill="#93A5C2"></path>
            <path d="M98.685873,58.0981301 C95.6645416,41.9782698 87.0612453,29.913715 72.8439971,21.6211511 C87.4546457,21.9667784 99.7048921,36.7917824 98.685873,58.0981301" id="Fill-14" fill="#CF2425"></path>
            <path d="M89.5518393,21.5981785 C84.5863541,19.3582474 79.79119,16.6945904 74.4036405,15.5023422 C73.5948227,15.3237127 72.7930669,15.0246121 71.977187,14.9814087 C70.4546819,14.8999869 70.0907761,14.1676058 70.111547,12.7198759 C70.1456113,10.3117007 70.1078083,10.214493 72.4474396,10.8538205 C79.2224834,12.70409 84.850975,16.4719266 89.8069057,21.3431121 C89.7209143,21.4270265 89.6357537,21.5121871 89.5518393,21.5981785" id="Fill-16" fill="#CF2425"></path>
            <path d="M53.986037,4.39499243 C48.6965261,9.23003661 46.7486335,15.632451 45.6569163,22.5105184 C42.7361159,19.1784547 42.3468697,14.49213 44.77997,10.9369871 C47.0265478,7.6551889 50.0985601,5.41691946 53.9968379,4.40496245 L53.986037,4.39499243 Z" id="Fill-18" fill="#CF2425"></path>
            <path d="M37.6424744,7.2153864 C36.2612112,13.2094454 36.2292241,18.910635 40.4270178,24.0065614 C38.2950952,24.167328 35.3431386,22.1180735 34.3590145,19.6928662 C32.3679185,14.7851239 34.912766,10.9649447 37.6424744,7.2153864" id="Fill-20" fill="#CF2425"></path>
            <path d="M23.1715307,21.6427112 C23.9774406,21.2177391 24.3762414,21.5218248 24.8012135,21.7532123 C28.6720737,23.8606252 32.549996,25.9551602 36.4146249,28.0746203 C36.8898625,28.335087 37.3671772,28.6570356 37.7227746,29.057498 C38.5282691,29.9647698 38.4796652,30.9842044 37.7173741,31.8702899 C36.945113,32.7680071 36.1645436,32.1008466 35.5488948,31.6102385 C31.4586942,28.3533654 27.4000653,25.0561968 23.1715307,21.6427112" id="Fill-22" fill="#FAFAFB"></path>
            <path d="M49.2042494,20.8558274 C50.3354312,16.2471858 58.0227319,10.760767 64.0118058,10.5268869 C61.7411338,12.6388695 60.3964274,15.2767705 57.337293,16.1782265 C54.797015,16.9268088 52.6709083,18.5481833 50.5618337,20.1284314 C50.1576325,20.4312708 49.8963349,21.0606283 49.2042494,20.8558274" id="Fill-24" fill="#CF2425"></path>
            <path d="M20.3017851,15.3066806 C23.5885683,12.3480772 27.1657283,9.90791487 31.5899246,8.97821053 C30.8587898,10.2011996 30.1280705,11.4241887 29.3969357,12.6471778 C26.9704821,13.3999143 24.8036645,14.5531133 23.2421101,16.6393399 C22.1649326,16.4091986 21.1712539,15.9954428 20.3017851,15.3066806" id="Fill-26" fill="#E9F0FC"></path>
            <path d="M23.2421932,16.639423 C24.8037476,14.5531963 26.9705652,13.3999974 29.3970188,12.6472609 C29.2212972,14.9424425 28.8557298,17.2492559 29.9416311,19.5805788 C27.4910833,18.8349044 25.2694306,17.9629431 23.2421932,16.639423" id="Fill-28" fill="#93A5C2"></path>
            <path d="M44.1288031,79.6749562 C44.5400664,78.2301341 44.8703233,77.0067296 45.2387986,75.7949568 C45.5104817,74.9009784 46.0982974,74.3987386 47.0824214,74.5428885 C48.0150337,74.6795608 48.8338216,75.0193723 49.0323911,76.0687169 C49.2164211,77.0432864 48.6875946,77.6892606 47.8289267,77.9646824 C46.5731196,78.3676373 45.5989656,79.448969 44.1288031,79.6749562" id="Fill-30" fill="#FAFAFB"></path>
            <path d="M49.7532651,72.4163248 C51.5108965,73.2949328 52.4705109,74.61056 52.3255302,76.6818316 C52.1855345,78.6878827 50.8030251,79.4601438 49.2294237,80.1123492 C48.4093895,80.4517453 47.6230042,80.9124433 46.6837453,80.8293598 C47.2312655,80.4363749 47.7517836,79.997694 48.331291,79.6591288 C49.6876292,78.8665122 51.2375518,78.2350776 51.0826011,76.2551978 C50.9288966,74.2911039 49.7557576,73.2064489 47.727274,72.8226031 C48.462563,72.3066546 49.132216,72.4927616 49.7532651,72.4163248" id="Fill-32" fill="#E9F0FC"></path>
            <path d="M89.8069888,21.3430291 C89.8834256,21.4427293 90.0454384,21.5951875 90.0217596,21.6329905 C89.863901,21.8893031 89.7014727,21.7451532 89.5523378,21.5972646 C89.6358368,21.512104 89.7209974,21.4269434 89.8069888,21.3430291" id="Fill-34" fill="#CF2425"></path>
            <path d="M10.0870014,66.0566153 C8.62182386,61.1821065 7.87116445,56.4446854 7.98125009,51.6142108 C8.19186676,42.3998355 10.4334595,33.7342266 15.3989448,25.8741123 C16.7498825,23.7359584 16.7615142,23.743436 18.6259079,25.4046905 C21.3331837,27.8178507 21.2841644,27.7817094 19.2058307,30.6215034 C11.9177462,40.5811377 8.92341696,51.7064335 10.262723,63.9878362 C10.3275281,64.5785599 10.5078193,65.184654 10.0870014,66.0566153" id="Fill-36" fill="#93A5C2"></path>
            <path d="M18.373251,56.8299852 C17.2192212,48.1514984 19.1579746,40.3890071 23.3694771,33.1333252 C24.6119908,30.9930943 24.6921664,31.0379594 26.4564445,32.7199848 C26.856907,33.1013381 27.2324444,33.5142631 27.6665557,33.8528283 C28.4795277,34.4871708 28.5509795,35.0072735 27.8019818,35.850571 C23.0874087,41.1616836 20.306604,47.3821452 19.2834307,54.4010391 C19.1945313,55.0117028 19.0624286,55.6186278 18.9054008,56.2151673 C18.8605357,56.3854884 18.6557349,56.513437 18.373251,56.8299852" id="Fill-38" fill="#93A5C2"></path>
            <path d="M46.5771907,48.2166358 C46.7084626,48.3533082 46.8393191,48.4903959 46.9705911,48.6270683 C49.4078455,47.7339207 51.8118665,46.7655825 53.6916306,44.8313987 C54.8456604,43.6441355 54.7580073,42.3783584 53.8195792,41.0884871 C53.2666585,40.3286885 52.7432325,40.3378277 52.1774339,41.0619004 C50.3130402,43.4484739 48.4444923,45.8321394 46.5771907,48.2166358 M41.7130673,44.4537842 C42.2215383,45.5488247 41.9132985,47.1888929 43.0473883,47.4053255 C44.0834395,47.6034796 44.7875721,46.2143235 45.5099832,45.413814 C48.5134516,42.0863199 51.4483762,38.6969286 54.4447826,35.3627878 C54.9711165,34.7770491 55.3674248,34.0151735 56.1608722,33.7015333 C56.4470949,34.0180814 56.2186152,34.2507152 56.1126838,34.4854261 C55.235322,36.4270874 53.5117549,38.0630015 56.3743968,40.2451896 C58.3476299,41.7490009 57.4976857,44.9539468 55.3304526,46.5109316 C52.6734424,48.4206058 49.7077769,49.6955221 46.5464498,50.5251108 C46.0159617,50.6642757 45.4539018,50.7577446 44.9753408,51.0057489 C42.7578423,52.155209 41.5730716,51.6538001 40.9790246,49.26058 C40.6267505,47.8402676 40.7962409,46.629741 41.7130673,44.4537842" id="Fill-40" fill="#203551"></path>
            <path d="M57.465657,24.0428689 C60.3332839,20.8607709 62.9429366,17.9648956 65.6140711,15.0008918 C66.6135656,19.3561287 62.7132108,23.7919567 57.465657,24.0428689" id="Fill-42" fill="#203551"></path>
            <path d="M32.0272761,73.4078017 C31.932561,74.41602 31.4909722,75.2950434 32.6017985,76.2496728 C33.5323337,77.0493515 32.6923595,78.4123362 31.8353533,79.3083918 C30.9862399,80.1961389 29.9834221,80.9580146 28.7546171,80.3436122 C27.763431,79.8476037 27.5951869,78.7554711 28.1834181,77.8423834 C29.2053451,76.255904 30.3755762,74.7649707 31.4834946,73.2337418 C31.6646167,73.2919002 31.8461541,73.3496433 32.0272761,73.4078017" id="Fill-44" fill="#203551"></path>
            <path d="M46.5771907,48.2166358 C48.4444923,45.8321394 50.3130402,43.4484739 52.1774339,41.0619004 C52.7432325,40.3378277 53.2666585,40.3286885 53.8195792,41.0884871 C54.7580073,42.3783584 54.8456604,43.6441355 53.6916306,44.8313987 C51.8118665,46.7655825 49.4078455,47.7339207 46.9705911,48.6270683 C46.8393191,48.4903959 46.7084626,48.3533082 46.5771907,48.2166358" id="Fill-46" fill="#CF2425"></path>
        </g>
    </g>
</svg>