<?xml version="1.0" encoding="utf-8"?>
<!-- Generator: Adobe Illustrator 22.0.1, SVG Export Plug-In . SVG Version: 6.00 Build 0)  -->
<svg version="1.1" id="Layer_1" xmlns="http://www.w3.org/2000/svg" xmlns:xlink="http://www.w3.org/1999/xlink" x="0px" y="0px"
	 viewBox="0 0 664.01 664.01" style="enable-background:new 0 0 664.01 664.01;" xml:space="preserve">
<g>
	<linearGradient id="SVGID_1_" gradientUnits="userSpaceOnUse" x1="332.0018" y1="430.7827" x2="332.0018" y2="152.3697">
		<stop  offset="0" style="stop-color:#17936F"/>
		<stop  offset="0.1077" style="stop-color:#149E73"/>
		<stop  offset="0.4888" style="stop-color:#0BC27E"/>
		<stop  offset="0.7998" style="stop-color:#06D885"/>
		<stop  offset="1" style="stop-color:#04E087"/>
	</linearGradient>
	<path style="fill:url(#SVGID_1_);" d="M383.342,348.192c0.294,0.344,0.836,0.944,1.481,1.551c0.635,0.61,1.355,1.248,2.099,1.881
		c1.499,1.27,3.12,2.527,4.776,3.755c3.333,2.451,6.842,4.782,10.435,6.961c7.176,4.371,14.724,8.173,22.333,11.073
		c3.805,1.421,7.637,2.588,11.374,3.345c1.854,0.329,3.709,0.65,5.461,0.733c0.911,0.085,1.69,0.056,2.625,0.078
		c1.005-0.035,2.021-0.026,3.016-0.092c7.999-0.355,15.69-1.91,22.191-5.07c6.525-3.127,11.693-7.963,15.318-14.175
		c3.641-6.207,5.712-13.715,6.645-21.577c0.928-7.884,0.729-16.131-0.142-24.367c-0.457-4.105-1.038-8.303-1.875-12.227
		c-0.838-4.04-1.85-8.129-3.009-12.127c-9.267-32.096-28.96-60.985-55.222-81.529c-13.102-10.306-27.833-18.5-43.449-24.252
		c-15.63-5.719-32.136-8.986-48.78-9.672c-16.642-0.691-33.311,1.284-49.329,5.838c-16.021,4.525-31.328,11.633-45.311,20.775
		c-14.014,9.101-26.684,20.315-37.452,33.073c-5.368,6.393-10.247,13.18-14.554,20.288c-4.279,7.122-7.978,14.567-10.958,22.251
		c-2.985,7.681-5.205,15.615-6.569,23.638c-1.382,8.045-1.771,16.086-1.369,24.23c0.426,8.108,1.778,16.144,4.093,23.881
		c1.166,3.865,2.516,7.672,4.102,11.383c1.608,3.699,3.425,7.312,5.495,10.778c2.061,3.472,4.365,6.797,6.85,9.988
		c2.466,3.207,5.175,6.231,8.06,9.089c2.895,2.847,5.986,5.509,9.248,7.961c3.247,2.472,6.651,4.768,10.224,6.803
		c3.56,2.062,7.285,3.852,11.098,5.479c3.814,1.631,7.752,3.016,11.778,4.16c8.041,2.355,16.431,3.733,24.962,4.401l0.038,0.003
		c2.488,0.195,4.347,2.37,4.152,4.857c-0.177,2.262-1.992,4.003-4.189,4.155c-18.317,1.282-37.408-1.887-54.582-10.079
		c-4.298-2.021-8.457-4.365-12.473-6.953c-3.985-2.634-7.803-5.541-11.418-8.693c-7.23-6.304-13.638-13.62-18.867-21.718
		c-5.247-8.08-9.493-16.836-12.454-26.006c-2.959-9.169-4.764-18.683-5.472-28.244c-0.756-9.528-0.208-19.284,1.334-28.702
		c1.553-9.441,4.095-18.658,7.475-27.498c3.375-8.845,7.544-17.334,12.343-25.413c4.826-8.063,10.274-15.721,16.256-22.92
		c11.997-14.364,26.065-26.952,41.704-37.216c15.646-10.237,32.823-18.227,50.891-23.34c18.043-5.145,36.981-7.392,55.726-6.614
		c9.368,0.397,18.72,1.47,27.925,3.321c9.201,1.861,18.26,4.431,27.059,7.7c17.587,6.562,34.139,15.87,48.826,27.522
		c14.7,11.631,27.596,25.543,37.973,41.146c10.405,15.58,18.329,32.809,23.394,50.832c1.265,4.517,2.345,9.037,3.264,13.674
		c0.958,4.747,1.548,9.338,2.031,14.034c0.914,9.369,1.027,18.942-0.225,28.642c-1.288,9.656-3.988,19.602-9.434,28.659
		c-2.712,4.504-6.117,8.716-10.103,12.304c-3.973,3.606-8.517,6.539-13.261,8.759c-2.37,1.125-4.797,2.061-7.244,2.837
		c-2.444,0.791-4.91,1.421-7.373,1.911c-4.929,1.013-9.843,1.477-14.687,1.627c-1.215,0.055-2.415,0.03-3.623,0.047
		c-1.276-0.037-2.716-0.049-4.008-0.186c-2.67-0.195-5.182-0.665-7.673-1.163c-4.924-1.087-9.556-2.612-14.013-4.363
		c-8.887-3.547-17.097-7.996-24.938-12.993c-3.921-2.502-7.739-5.158-11.476-8.037c-1.868-1.45-3.715-2.947-5.559-4.581
		c-0.922-0.823-1.843-1.673-2.783-2.618c-0.936-0.942-1.901-1.969-2.972-3.368c-2.683-3.507-2.015-8.526,1.493-11.209
		c3.387-2.591,8.182-2.057,10.923,1.14L383.342,348.192z"/>
</g>
<g>
	<g>
		<linearGradient id="SVGID_2_" gradientUnits="userSpaceOnUse" x1="393.0009" y1="361.0106" x2="393.0009" y2="313.3033">
			<stop  offset="0" style="stop-color:#0DB97B"/>
			<stop  offset="1" style="stop-color:#00ED8B"/>
		</linearGradient>
		
			<path style="fill:none;stroke:url(#SVGID_2_);stroke-width:16.0087;stroke-linecap:round;stroke-linejoin:round;stroke-miterlimit:10;" d="
			M409.055,321.308c-15.143,21.517-32.109,31.699-32.109,31.699"/>
		<g>
			<linearGradient id="SVGID_4_" gradientUnits="userSpaceOnUse" x1="295.7681" y1="396.2737" x2="295.7681" y2="229.0543">
				<stop  offset="0" style="stop-color:#17936F"/>
				<stop  offset="1" style="stop-color:#00ED8B"/>
			</linearGradient>
			<path style="fill:url(#SVGID_4_);" d="M360.491,391.984c-12.852-12.677-28.543-22.462-45.412-28.599
				c-8.436-3.059-17.185-5.171-25.97-6.163c-8.778-0.998-17.611-0.846-26.012,0.689c-4.198,0.766-8.275,1.899-12.149,3.391
				c-1.936,0.747-3.82,1.587-5.639,2.52c-0.908,0.469-1.799,0.962-2.677,1.471l-1.298,0.789c-0.364,0.225-0.55,0.355-0.82,0.546
				c-1.962,1.413-3.08,3.484-3.261,5.05c-0.092,0.777,0.019,1.342,0.176,1.662c0.158,0.341,0.565,0.873,1.289,1.359
				c0.72,0.476,1.695,0.879,2.714,1.029c0.508,0.086,1.025,0.106,1.53,0.082c0.253-0.01,0.503-0.04,0.75-0.078
				c0.122-0.025,0.247-0.037,0.366-0.07l0.192-0.041l0.374-0.098c3.985-0.992,7.995-2.429,11.933-4.204
				c7.886-3.544,15.486-8.317,22.562-13.804c7.09-5.484,13.673-11.72,19.609-18.466c5.927-6.75,11.193-14.055,15.447-21.745
				c4.229-7.682,7.457-15.804,8.853-23.873c0.72-4.03,0.921-8.018,0.63-11.858c-0.343-3.828-1.193-7.497-2.657-10.9
				c-0.735-1.699-1.573-3.355-2.603-4.917c-0.983-1.586-2.157-3.077-3.414-4.52c-2.553-2.843-5.638-5.541-8.792-7.514
				c-3.183-2.005-6.565-3.411-10.076-4.167c-3.51-0.76-7.165-0.839-10.839-0.313c-7.346,1.069-14.753,4.71-20.741,9.862
				c-2.99,2.564-5.625,5.53-7.58,8.597c-0.964,1.53-1.75,3.081-2.279,4.526c-0.52,1.435-0.765,2.76-0.764,3.662v0.042
				c0.004,5.479-4.435,9.925-9.914,9.929c-5.479,0.004-9.924-4.435-9.928-9.914v-0.056c0.02-3.921,0.855-7.357,1.958-10.443
				c1.127-3.076,2.564-5.822,4.164-8.363c3.227-5.05,7.101-9.313,11.402-13.021c4.307-3.698,9.059-6.839,14.221-9.312
				c5.151-2.48,10.736-4.273,16.586-5.142c5.844-0.85,11.965-0.735,17.867,0.543c5.904,1.262,11.527,3.644,16.481,6.77
				c2.478,1.561,4.816,3.299,6.967,5.159c1.071,0.928,2.138,1.862,3.148,2.886c1.04,0.978,2.009,2.053,2.981,3.123
				c1.907,2.177,3.71,4.489,5.275,6.987c1.607,2.465,2.97,5.109,4.137,7.826c1.197,2.712,2.057,5.551,2.783,8.397
				c0.699,2.858,1.119,5.747,1.392,8.628c0.45,5.759,0.112,11.452-0.854,16.898c-1.914,10.926-6.002,20.9-11.026,30.06
				c-5.067,9.155-11.145,17.542-17.911,25.254c-6.779,7.702-14.233,14.764-22.368,21.061c-8.131,6.294-16.924,11.871-26.601,16.227
				c-4.836,2.175-9.913,4.02-15.27,5.356l-0.5,0.129l-0.688,0.153c-0.466,0.107-0.937,0.184-1.407,0.264
				c-0.942,0.148-1.89,0.251-2.838,0.297c-1.897,0.096-3.796,0.001-5.664-0.3c-3.736-0.589-7.357-1.954-10.646-4.139
				c-3.267-2.189-6.252-5.306-8.167-9.321c-1.935-4.029-2.471-8.422-2.023-12.416c0.9-8.064,5.549-14.699,11.367-18.891
				c0.71-0.508,1.525-1.045,2.193-1.439l1.813-1.04c1.22-0.668,2.453-1.308,3.699-1.911c2.495-1.2,5.041-2.256,7.618-3.176
				c5.157-1.837,10.433-3.143,15.726-3.972c10.593-1.654,21.217-1.515,31.522-0.086c10.313,1.432,20.337,4.14,29.905,7.882
				c19.138,7.476,36.506,19.112,50.639,33.904c3.068,3.211,2.952,8.301-0.259,11.369c-3.15,3.01-8.109,2.955-11.193-0.08
				L360.491,391.984z"/>
		</g>
		<linearGradient id="SVGID_6_" gradientUnits="userSpaceOnUse" x1="366.6021" y1="394.3568" x2="366.6021" y2="313.3033">
			<stop  offset="0" style="stop-color:#17936F"/>
			<stop  offset="1" style="stop-color:#00ED8B"/>
		</linearGradient>
		
			<line style="fill:none;stroke:url(#SVGID_6_);stroke-width:16.0087;stroke-linecap:round;stroke-linejoin:round;stroke-miterlimit:10;" x1="366.519" y1="386.352" x2="366.685" y2="321.308"/>
	</g>
</g>
<g>
	<g>
		<g>
			<path style="fill:#59585A;" d="M296.114,415.809c0-0.904,0.667-1.62,1.512-1.62h0.314c0.727,0,1.158,0.379,1.571,0.947
				l5.832,8.206v-7.597c0-0.883,0.668-1.599,1.492-1.599c0.825,0,1.493,0.716,1.493,1.599v11.721c0,0.905-0.668,1.62-1.513,1.62
				h-0.098c-0.727,0-1.159-0.379-1.571-0.946l-6.049-8.501v7.891c0,0.884-0.667,1.599-1.492,1.599s-1.492-0.715-1.492-1.599V415.809
				z"/>
			<path style="fill:#59585A;" d="M312.41,427.382v-11.489c0-0.904,0.668-1.62,1.512-1.62h7.62c0.746,0,1.354,0.652,1.354,1.452
				s-0.608,1.431-1.354,1.431h-6.127v2.988h5.243c0.746,0,1.354,0.652,1.354,1.451c0,0.8-0.608,1.432-1.354,1.432h-5.243v3.093
				h6.225c0.747,0,1.355,0.652,1.355,1.452s-0.608,1.431-1.355,1.431h-7.718C313.078,429.003,312.41,428.287,312.41,427.382z"/>
			<path style="fill:#59585A;" d="M329.551,417.261h-2.907c-0.766,0-1.394-0.674-1.394-1.494s0.628-1.494,1.394-1.494h8.838
				c0.766,0,1.395,0.674,1.395,1.494s-0.629,1.494-1.395,1.494h-2.906v10.247c0,0.905-0.668,1.62-1.513,1.62
				s-1.512-0.715-1.512-1.62V417.261z"/>
			<path style="fill:#59585A;" d="M338.994,416.336c-0.059-0.189-0.117-0.421-0.117-0.61c0-0.905,0.707-1.578,1.551-1.578
				c0.707,0,1.277,0.483,1.473,1.157l2.73,9.027l2.749-8.943c0.235-0.758,0.766-1.283,1.532-1.283h0.235
				c0.766,0,1.296,0.505,1.532,1.283l2.749,8.943l2.729-9.027c0.196-0.631,0.707-1.157,1.453-1.157c0.825,0,1.492,0.673,1.492,1.557
				c0,0.189-0.059,0.442-0.117,0.632l-3.85,11.573c-0.274,0.82-0.844,1.325-1.57,1.325h-0.314c-0.727,0-1.276-0.484-1.552-1.325
				l-2.71-8.438l-2.71,8.438c-0.275,0.841-0.825,1.325-1.552,1.325h-0.314c-0.727,0-1.296-0.505-1.57-1.325L338.994,416.336z"/>
			<path style="fill:#59585A;" d="M361.592,421.68v-0.042c0-4.188,3.084-7.617,7.325-7.617c4.242,0,7.286,3.388,7.286,7.574v0.043
				c0,4.187-3.083,7.617-7.325,7.617S361.592,425.868,361.592,421.68z M373.042,421.68v-0.042c0-2.525-1.728-4.63-4.163-4.63
				s-4.124,2.062-4.124,4.587v0.043c0,2.524,1.729,4.629,4.163,4.629C371.353,426.267,373.042,424.205,373.042,421.68z"/>
			<path style="fill:#59585A;" d="M379.675,415.893c0-0.904,0.668-1.62,1.513-1.62h4.772c1.747,0,3.103,0.526,4.006,1.494
				c0.766,0.82,1.178,1.978,1.178,3.367v0.042c0,2.314-1.08,3.745-2.749,4.481l2.102,2.735c0.294,0.4,0.491,0.736,0.491,1.241
				c0,0.905-0.707,1.494-1.434,1.494c-0.688,0-1.14-0.357-1.493-0.842l-2.945-3.998H382.7v3.22c0,0.905-0.667,1.62-1.512,1.62
				s-1.513-0.715-1.513-1.62V415.893z M385.763,421.427c1.473,0,2.317-0.842,2.317-2.083v-0.042c0-1.389-0.903-2.104-2.376-2.104
				H382.7v4.229H385.763z"/>
			<path style="fill:#59585A;" d="M394.657,415.767c0-0.904,0.667-1.62,1.512-1.62s1.513,0.716,1.513,1.62v4.945l5.577-5.935
				c0.373-0.399,0.746-0.631,1.276-0.631c0.844,0,1.395,0.694,1.395,1.494c0,0.505-0.217,0.884-0.551,1.22l-3.868,3.872l4.222,5.682
				c0.236,0.315,0.413,0.652,0.413,1.136c0,0.905-0.648,1.578-1.532,1.578c-0.589,0-0.942-0.315-1.276-0.778l-3.928-5.513
				l-1.728,1.726v2.945c0,0.905-0.668,1.62-1.513,1.62s-1.512-0.715-1.512-1.62V415.767z"/>
		</g>
	</g>
</g>
<linearGradient id="SVGID_8_" gradientUnits="userSpaceOnUse" x1="332.0049" y1="512.3192" x2="332.0049" y2="151.6905">
	<stop  offset="0" style="stop-color:#17936F"/>
	<stop  offset="0.1077" style="stop-color:#149E73"/>
	<stop  offset="0.4888" style="stop-color:#0BC27E"/>
	<stop  offset="0.7998" style="stop-color:#06D885"/>
	<stop  offset="1" style="stop-color:#04E087"/>
</linearGradient>
<path style="fill:none;stroke:url(#SVGID_8_);stroke-width:20.9167;stroke-linecap:round;stroke-linejoin:round;stroke-miterlimit:10;" d="
	M499.955,341.911c0,0,1.906-4.917,1.906-9.906c0-8.674-0.65-17.196-1.904-25.52c-0.3-1.99-0.634-3.968-1.002-5.934
	c-14.751-78.781-83.887-138.402-166.949-138.402c-93.809,0-169.856,76.047-169.856,169.856s76.047,169.856,169.856,169.856
	c57.746,0,108.761-28.816,139.451-72.853c15.387-22.079,25.665-47.984,29.119-76.001c0.507-4.113,0.867-8.271,1.075-12.469"/>
</svg>
