<?xml version="1.0" encoding="UTF-8"?>
<svg width="108px" height="108px" viewBox="0 0 108 108" version="1.1" xmlns="http://www.w3.org/2000/svg" xmlns:xlink="http://www.w3.org/1999/xlink">
    <!-- Generator: Sketch 63.1 (92452) - https://sketch.com -->
    <title>aave</title>
    <desc>Created with Sketch.</desc>
    <defs>
        <linearGradient x1="100%" y1="0%" x2="0%" y2="100%" id="linearGradient-1">
            <stop stop-color="#C148A3" offset="0%"></stop>
            <stop stop-color="#00BBC6" offset="100%"></stop>
        </linearGradient>
    </defs>
    <g id="aave" stroke="none" stroke-width="1" fill="none" fill-rule="evenodd">
        <g id="Group">
            <circle id="Oval" fill="url(#linearGradient-1)" cx="54" cy="54" r="54"></circle>
            <path d="M58.6370493,16.2583655 L58.7232782,16.4504834 L85.7588744,80.7922803 C86.6146488,82.8289308 85.6573595,85.1737045 83.620709,86.0294789 C81.6477038,86.8585103 79.3855322,85.986024 78.4680467,84.0790649 L78.3835104,83.8913135 L55.035,28.326 L46.8999615,47.685 L55.0355962,47.6855469 C57.2447352,47.6855469 59.0355962,49.4764079 59.0355962,51.6855469 C59.0355962,53.8277423 57.3516277,55.5766258 55.2352365,55.6806516 L55.0355962,55.6855469 L43.5389615,55.685 L31.687682,83.8913135 C30.8586506,85.8643186 28.6322282,86.8243686 26.6422673,86.1044184 L26.4504834,86.0294789 C24.4774782,85.2004474 23.5174283,82.9740251 24.2373785,80.9840641 L24.312318,80.7922803 L34.8609615,55.685 L28,55.6855469 C25.790861,55.6855469 24,53.8946859 24,51.6855469 C24,49.5433515 25.6839685,47.794468 27.8003597,47.6904422 L28,47.6855469 L38.2229615,47.685 L51.3479142,16.4504834 C52.6933388,13.2485184 57.1665147,13.1844791 58.6370493,16.2583655 Z" id="Combined-Shape" fill="#FFFFFF" fill-rule="nonzero"></path>
        </g>
    </g>
</svg>