<?xml version="1.0" encoding="utf-8"?>
<!-- Generator: Adobe Illustrator 24.2.3, SVG Export Plug-In . SVG Version: 6.00 Build 0)  -->
<svg version="1.1" id="Layer_1" xmlns="http://www.w3.org/2000/svg" xmlns:xlink="http://www.w3.org/1999/xlink" x="0px" y="0px"
	 viewBox="0 0 28 28" style="enable-background:new 0 0 28 28;" xml:space="preserve">
<style type="text/css">
	.st0{fill:url(#Rectangle_1_);}
	.st1{fill:#FFFFFF;}
</style>
<g id="Page-1">
	<g id="theabyss_32">
		
			<linearGradient id="Rectangle_1_" gradientUnits="userSpaceOnUse" x1="-274.1562" y1="420.1088" x2="-273.2812" y2="419.2338" gradientTransform="matrix(32 0 0 -32 8773 13443.4805)">
			<stop  offset="0" style="stop-color:#9B1EEA"/>
			<stop  offset="1" style="stop-color:#5013AC"/>
		</linearGradient>
		<path id="Rectangle" class="st0" d="M14,0L14,0c7.7,0,14,6.3,14,14l0,0c0,7.7-6.3,14-14,14l0,0C6.3,28,0,21.7,0,14l0,0
			C0,6.3,6.3,0,14,0z"/>
		<path id="Path" class="st1" d="M15,11.1c-0.3,0-0.7,0-1,0c-0.3,0-0.6,0-0.9,0c-0.4,0-0.8,0.1-1.2,0.2h-0.1v2h4.4v-2
			C15.8,11.2,15.4,11.1,15,11.1z"/>
		<path id="Shape" class="st1" d="M20.7,7c-0.2-0.1-0.4-0.2-0.6-0.3h0c-1.2-0.5-2.6-1-5-1.1c-0.3,0-0.6,0-1,0c-0.3,0-0.6,0-0.9,0
			C10.5,5.7,9.1,6.2,8,6.7C7.7,6.8,7.5,6.9,7.3,7C7.1,7.1,6.9,7.3,6.7,7.3v10.6l1.2,0.9l3.7,2.6l1.4,1l0.9,0.7l1-0.7l1.4-1l3.6-2.6
			l0,0l1.2-0.9V7.3C21.1,7.2,20.9,7.1,20.7,7z M18.1,16.7l-1.9,1.3c0-0.9,0-2.9,0-2.9h-4.4v2.9l-1.9-1.3v-7l1.8-0.3
			c0.4-0.1,0.9-0.1,1.3-0.2c0.3,0,0.6,0,0.9,0c0.3,0,0.7,0,1,0c0.5,0,0.9,0.1,1.3,0.2l1.8,0.3L18.1,16.7L18.1,16.7z"/>
	</g>
</g>
</svg>
