<?xml version="1.0" encoding="UTF-8"?>
<svg width="32px" height="32px" viewBox="0 0 32 32" version="1.1" xmlns="http://www.w3.org/2000/svg" xmlns:xlink="http://www.w3.org/1999/xlink">
    <title>abyss</title>
    <defs>
        <linearGradient x1="100%" y1="100%" x2="0%" y2="1.72254642e-14%" id="linearGradient-1">
            <stop stop-color="#032CA9" offset="0%"></stop>
            <stop stop-color="#2E50CF" offset="100%"></stop>
        </linearGradient>
    </defs>
    <g id="Page-1" stroke="none" stroke-width="1" fill="none" fill-rule="evenodd">
        <g id="abyss" fill-rule="nonzero">
            <rect id="Rectangle" fill="url(#linearGradient-1)" x="0" y="0" width="32" height="32" rx="16"></rect>
            <path d="M17.11168,12.66664 C16.73744,12.62224 16.36312,12.62224 15.98888,12.62224 C15.63656,12.62224 15.28432,12.6444 14.93208,12.66664 C14.46968,12.71112 14.00736,12.75552 13.54504,12.8444 L13.47896,12.8444 L13.47896,15.11112 L18.4988,15.11112 L18.4988,12.8444 C18.0364,12.75552 17.57408,12.71112 17.11168,12.66664 Z" id="Path" fill="#FFFFFF"></path>
            <path d="M23.60688,8 C23.38672,7.888888 23.14456,7.8 22.9024,7.688888 L22.88032,7.688888 C21.55936,7.133336 19.95216,6.555552 17.112,6.444448 C16.75968,6.4 16.38544,6.4 15.98912,6.4 C15.6148,6.4 15.26256,6.4 14.93232,6.422224 C12.04816,6.533336 10.41888,7.133336 9.09792,7.711112 C8.83368,7.822224 8.61352,7.933336 8.39336,8.02224 C8.10712,8.15552 7.864944,8.28888 7.6668,8.37776 L7.6668,20.44448 L9.07584,21.46664 L13.25904,24.46664 L14.91032,25.64448 L15.96712,26.4 L17.08992,25.6 L18.6972,24.44448 L22.85832,21.46664 L22.88032,21.44448 L24.28944,20.42224 L24.28944,8.35552 C24.11328,8.24448 23.89312,8.13336 23.60688,8 Z M20.70072,19.11112 L18.49904,20.64448 C18.49904,19.57776 18.49904,17.37776 18.49904,17.37776 L13.4792,17.37776 L13.4792,20.64448 L11.3216,19.11112 L11.3216,11.13336 L13.36912,10.73336 C13.87552,10.64448 14.40392,10.57776 14.91032,10.53336 C15.26256,10.51112 15.6148,10.48888 15.96712,10.48888 C16.34136,10.48888 16.71568,10.51112 17.08992,10.53336 C17.6184,10.57776 18.12472,10.64448 18.63112,10.73336 L20.65664,11.13336 L20.65664,19.11112 L20.70072,19.11112 Z" id="Shape" fill="#FFFFFF"></path>
        </g>
    </g>
</svg>