<?xml version="1.0" encoding="UTF-8"?>
<svg width="26px" height="28px" viewBox="0 0 26 28" version="1.1" xmlns="http://www.w3.org/2000/svg" xmlns:xlink="http://www.w3.org/1999/xlink">
    <!-- Generator: Sketch 52.3 (67297) - http://www.bohemiancoding.com/sketch -->
    <title>cnn</title>
    <desc>Created with Sketch.</desc>
    <defs>
        <linearGradient x1="75.0003554%" y1="88.4910484%" x2="31.7336369%" y2="20.5703665%" id="linearGradient-1">
            <stop stop-color="#44B3E6" offset="0%"></stop>
            <stop stop-color="#718BC6" offset="100%"></stop>
        </linearGradient>
    </defs>
    <g id="Wallet" stroke="none" stroke-width="1" fill="none" fill-rule="evenodd">
        <g id="All-Tokens" transform="translate(-79.000000, -538.000000)" fill="url(#linearGradient-1)">
            <g id="cnn" transform="translate(79.071429, 538.000000)">
                <path d="M12.671467,0.121890547 C12.2510752,0.121890547 11.8306835,0.226838308 11.453972,0.436855721 L1.21736878,6.1430398 C0.464072139,6.56307463 0,7.33927363 0,8.17922139 L0,19.5915896 C0,20.4315373 0.464072139,21.2076144 1.21749502,21.6276493 L11.453972,27.3338333 C12.2073949,27.7537463 13.1355392,27.7537463 13.8889621,27.3338333 L24.1254391,21.6276493 C24.8787357,21.2076144 25.3428078,20.4315373 25.3428078,19.5915896 L25.3428078,8.17922139 C25.3428078,7.33927363 24.8787357,6.56307463 24.1254391,6.1430398 L13.8889621,0.436855721 C13.5122506,0.226838308 13.0918588,0.121890547 12.671467,0.121890547 Z M11.7612494,5.91559204 C11.7612494,5.43034577 12.1687643,5.03676119 12.671467,5.03676119 C13.1741698,5.03676119 13.5815585,5.43034577 13.5815585,5.91559204 C13.5815585,6.4009602 13.1741698,6.794301 12.671467,6.794301 C12.1687643,6.794301 11.7612494,6.4009602 11.7612494,5.91559204 Z M13.8844173,6.73445274 L14.2166909,6.21641791 L18.2824981,8.64813433 C18.4148016,8.7271194 18.4770398,8.88326119 18.4338644,9.0275796 C18.3908153,9.1720199 18.2542195,9.27538308 18.0962886,9.27099502 L12.56012,9.23174627 C12.5344925,9.26124378 12.5078551,9.28988806 12.4780616,9.31609453 L9.36072388,12.0750871 C9.37650435,12.1394453 9.3867301,12.2053881 9.3867301,12.2727935 L9.3867301,16.0283632 C9.3867301,16.0991816 9.41753358,16.1675622 9.47106095,16.2158308 L12.4261754,18.8855995 C12.439431,18.8975448 12.449783,18.9116841 12.4620286,18.9241169 L17.6538041,18.3278284 L17.7282879,18.9330149 L12.7183035,19.5083383 L13.0252021,21.5498831 L17.7232382,18.9776269 L18.0346816,19.5078507 L12.8905,22.3243756 C12.7522631,22.4000697 12.6001393,22.4379776 12.4478893,22.4379776 C12.3005628,22.4379776 12.1532363,22.4023856 12.0182817,22.3315672 L6.05477799,19.1928856 L6.35687935,18.6576642 L12.3203831,21.7963458 C12.3545951,21.8142637 12.3917108,21.8229179 12.4289527,21.8254776 L12.0787525,19.496393 L6.58601182,18.3613483 L6.71818905,17.7655473 L11.3137152,18.7150746 L9.03993843,16.6608532 C9.02655659,16.6486642 9.0141847,16.6353781 9.00156032,16.6224577 L6.66870149,17.4644776 L6.44764863,16.8935423 L8.75727861,16.0600547 C8.75702612,16.0494502 8.75563744,16.0389677 8.75563744,16.0283632 L8.75563744,12.908209 L6.13809888,16.6247736 L5.6159546,16.2820174 L8.60326119,12.0407139 L5.37268284,10.5579154 C5.32597264,10.6778557 5.29996642,10.8064502 5.29996642,10.9394328 L5.29996642,16.2040075 L4.66887376,16.2040075 L4.66887376,10.9394328 C4.66887376,10.3528955 4.97640361,9.81730846 5.49173072,9.50673134 L10.947482,6.21702736 L11.2819017,6.73384328 L6.45017351,9.64727114 L12.0367133,8.63472637 C12.0700417,8.62863184 12.103875,8.62497512 12.1378346,8.62278109 L12.1378346,7.47310945 L12.7690535,7.47310945 L12.7690535,8.62387811 L17.0944179,8.65435075 L13.8844173,6.73445274 Z M18.9537363,9.37496766 C18.9537363,9.11668159 19.1704969,8.90727363 19.4380075,8.90727363 C19.705518,8.90727363 19.9224049,9.11668159 19.9224049,9.37496766 C19.9224049,9.63313184 19.705518,9.84266169 19.4380075,9.84266169 C19.1704969,9.84266169 18.9537363,9.63313184 18.9537363,9.37496766 Z M4.07439179,17.7743234 C4.07439179,17.2890771 4.48178047,16.8956144 4.98460945,16.8956144 C5.48718595,16.8956144 5.89470087,17.2890771 5.89470087,17.7743234 C5.89470087,18.2596915 5.48718595,18.6531542 4.98460945,18.6531542 C4.48178047,18.6531542 4.07439179,18.2596915 4.07439179,17.7743234 Z M18.3545833,18.3640299 C18.3545833,17.8786617 18.7620983,17.4853209 19.2646748,17.4853209 C19.7673775,17.4853209 20.1748924,17.8786617 20.1748924,18.3640299 C20.1748924,18.8492761 19.7673775,19.2427388 19.2646748,19.2427388 C18.7620983,19.2427388 18.3545833,18.8492761 18.3545833,18.3640299 Z" id="Fill-1"></path>
                <path d="M6.27785075,10.2985323 L8.87468532,11.4903781 C8.92051182,11.5113433 8.96292973,11.5368184 9.00370647,11.5644876 L11.504217,9.3513209 L6.27785075,10.2985323 Z" id="Fill-4"></path>
            </g>
        </g>
    </g>
</svg>