<?xml version="1.0" encoding="UTF-8"?>
<svg width="28px" height="36px" viewBox="0 0 28 36" version="1.1" xmlns="http://www.w3.org/2000/svg" xmlns:xlink="http://www.w3.org/1999/xlink">
    <title>Combined Shape</title>
    <g id="Wallet" stroke="none" stroke-width="1" fill="none" fill-rule="evenodd">
        <g id="All-Tokens" transform="translate(-683.000000, -390.000000)" fill="#00D890">
            <path d="M684.191489,408.070738 L697.893617,416.280926 C698.551658,416.686147 699.085106,417.546903 699.085106,418.20348 L699.085106,425.3365 C699.085106,425.993076 698.551658,426.19684 697.893617,425.791619 L684.191489,417.581431 C683.533448,417.176211 683,416.315454 683,415.658878 L683,408.525858 C683,407.869281 683.533448,407.665517 684.191489,408.070738 Z M690.148936,399.154463 L704.446809,407.959069 C705.10485,408.36429 705.638298,409.225047 705.638298,409.881623 L705.638298,421.39832 L702.06383,423.115117 L702.06383,415.125908 C701.625136,414.855761 697.256341,412.246374 688.957447,407.297747 L688.957447,399.609583 C688.957447,398.953006 689.490895,398.749243 690.148936,399.154463 Z M695.510638,390.208381 L709.808511,399.012987 C710.466552,399.418208 711,400.278964 711,400.935541 L711,418.173672 L707.425532,419.89047 L707.425532,406.179826 C706.986838,405.909679 702.618043,403.300291 694.319149,398.351664 L694.319149,390.6635 C694.319149,390.006924 694.852597,389.80316 695.510638,390.208381 Z" id="Combined-Shape"></path>
        </g>
    </g>
</svg>