<svg id="Layer_1" data-name="Layer 1" xmlns="http://www.w3.org/2000/svg" viewBox="0 0 235.71258 236.03236"><defs><style>.cls-1{fill:#16e5dd;}.cls-2{fill:#fff;}</style></defs><path class="cls-1" d="M.042,117.93622C-.76078,53.27876,52.40106-.01558,117.88747,0A118.11237,118.11237,0,0,1,235.67729,121.46416c-1.476,62.01272-53.25744,112.36046-113.61174,114.494C53.50364,238.38176-1.74251,181.09919.042,117.93622Z"/><path class="cls-2" d="M46.42149,117.52023a79.54792,79.54792,0,0,0,8.21893,34.285c7.49987,15.16687,19.17743,26.23914,34.06415,33.77192,12.23965,6.19334,25.38385,7.88518,39.19455,7.05693,14.41724-.86462,26.81584-6.12436,38.40043-14.07662,5.95441-4.08745,6.38925-9.59953,1.29153-14.70366q-18.95664-18.98053-37.94826-37.92608c-6.19048-6.18122-6.2158-9.30573-.11833-15.40191q18.83969-18.83592,37.66471-37.68652c5.85273-5.86693,5.40757-10.49236-1.215-15.3817C148.63158,44.654,129.18248,41.06337,108.23829,44.34334,90.8155,47.07185,76.71024,55.80186,65.16259,68.904,52.83076,82.896,47.00453,99.3793,46.42149,117.52023Z"/></svg>