<svg id="Layer_1" data-name="Layer 1" xmlns="http://www.w3.org/2000/svg" viewBox="0 0 224.29 221.46"><defs><style>.cls-1{fill:#00bdaf;}.cls-2{fill:#20252c;}</style></defs><title>GVtradingviewLogo2</title><path class="cls-1" d="M261,55.78A112.15,112.15,0,1,1,37.57,42.13H57.71a93.22,93.22,0,0,0-1,13.65,92.19,92.19,0,0,0,184.11,6.93H98.23a51.12,51.12,0,0,0,96.4,15.86h21.59A71.09,71.09,0,0,1,79.11,42.13H260.2A111.92,111.92,0,0,1,261,55.78" transform="translate(-36.74 -42.13)"/><path class="cls-2" d="M64.71,204h8.56v12.61A23,23,0,0,1,67,219.45a24.43,24.43,0,0,1-7,1.12,17.2,17.2,0,0,1-8.41-2,14.9,14.9,0,0,1-5.83-5.63,15.7,15.7,0,0,1-2.11-8.11A15.08,15.08,0,0,1,52,191.09a18.66,18.66,0,0,1,8.73-2,20.6,20.6,0,0,1,7.08,1.29,18.2,18.2,0,0,1,6,3.44l-5.64,6.85a11.1,11.1,0,0,0-3.55-2.39,9.78,9.78,0,0,0-3.89-.88,6.4,6.4,0,0,0-3.44,1A6.64,6.64,0,0,0,54.81,201a8.11,8.11,0,0,0-.86,3.79,8.24,8.24,0,0,0,.88,3.85,6.72,6.72,0,0,0,2.43,2.66,6.41,6.41,0,0,0,3.49,1,10.09,10.09,0,0,0,4-1Z" transform="translate(-36.74 -42.13)"/><polygon class="cls-2" points="42.81 147.58 68.33 147.58 68.33 155.16 52.8 155.16 52.8 158.86 66.91 158.86 66.91 166.43 52.8 166.43 52.8 170.17 68.71 170.17 68.71 177.74 42.81 177.74 42.81 147.58"/><polygon class="cls-2" points="95.35 147.58 104.38 147.58 104.38 177.74 96.04 177.74 84.16 162.34 84.16 177.74 75.08 177.74 75.08 147.58 83.43 147.58 95.35 163.07 95.35 147.58"/><polygon class="cls-2" points="111.27 147.58 136.78 147.58 136.78 155.16 121.25 155.16 121.25 158.86 135.36 158.86 135.36 166.43 121.25 166.43 121.25 170.17 137.17 170.17 137.17 177.74 111.27 177.74 111.27 147.58"/><path class="cls-2" d="M197.4,197.68a15.37,15.37,0,0,0-4.91-1.08c-1.23,0-1.85.45-1.85,1.33a1.75,1.75,0,0,0,1.18,1.6,23.79,23.79,0,0,0,3.77,1.24,47,47,0,0,1,5.35,1.81,9.65,9.65,0,0,1,3.73,2.86,7.91,7.91,0,0,1,1.59,5.14,8.78,8.78,0,0,1-1.7,5.49,10,10,0,0,1-4.58,3.29,18.19,18.19,0,0,1-6.41,1.08,26.29,26.29,0,0,1-8.07-1.31,23.24,23.24,0,0,1-7-3.6l3.7-7.53a20.23,20.23,0,0,0,5.73,3.38,16,16,0,0,0,5.76,1.4,3.31,3.31,0,0,0,1.77-.41,1.38,1.38,0,0,0,.64-1.27,1.78,1.78,0,0,0-1.23-1.61,21.39,21.39,0,0,0-3.85-1.23,39.44,39.44,0,0,1-5.31-1.7,9.52,9.52,0,0,1-3.68-2.73,7.46,7.46,0,0,1-1.55-5,8.86,8.86,0,0,1,1.6-5.27,9.94,9.94,0,0,1,4.51-3.46,17.64,17.64,0,0,1,6.8-1.21,25.84,25.84,0,0,1,7,1,23,23,0,0,1,6.08,2.63l-3.61,7.61a33.51,33.51,0,0,0-5.46-2.49" transform="translate(-36.74 -42.13)"/><rect class="cls-2" x="174.69" y="147.58" width="9.98" height="30.16"/><path class="cls-2" d="M245.41,197.68a15.33,15.33,0,0,0-4.9-1.08c-1.24,0-1.85.45-1.85,1.33a1.75,1.75,0,0,0,1.18,1.6,23.59,23.59,0,0,0,3.76,1.24,47.25,47.25,0,0,1,5.36,1.81,9.62,9.62,0,0,1,3.72,2.86,7.91,7.91,0,0,1,1.59,5.14,8.72,8.72,0,0,1-1.7,5.49,10,10,0,0,1-4.58,3.29,18.15,18.15,0,0,1-6.41,1.08,26.34,26.34,0,0,1-8.07-1.31,23.19,23.19,0,0,1-7-3.6l3.7-7.53a20.31,20.31,0,0,0,5.72,3.38,16.07,16.07,0,0,0,5.77,1.4,3.3,3.3,0,0,0,1.76-.41,1.39,1.39,0,0,0,.65-1.27,1.78,1.78,0,0,0-1.23-1.61,21.66,21.66,0,0,0-3.85-1.23,39.44,39.44,0,0,1-5.31-1.7,9.52,9.52,0,0,1-3.68-2.73,7.46,7.46,0,0,1-1.55-5,8.93,8.93,0,0,1,1.59-5.27,10,10,0,0,1,4.52-3.46,17.64,17.64,0,0,1,6.8-1.21,25.77,25.77,0,0,1,7,1,23,23,0,0,1,6.09,2.63l-3.62,7.61a32.75,32.75,0,0,0-5.46-2.49" transform="translate(-36.74 -42.13)"/><polygon class="cls-2" points="26.46 190.61 37.13 190.61 43.37 210.4 49.57 190.61 59.76 190.61 48.23 220.77 37.91 220.77 26.46 190.61"/><rect class="cls-2" x="64.28" y="190.61" width="9.98" height="30.16"/><path class="cls-2" d="M135,240.7a15.59,15.59,0,0,0-4.91-1.07c-1.23,0-1.85.44-1.85,1.33a1.74,1.74,0,0,0,1.19,1.59,23,23,0,0,0,3.76,1.25,45.34,45.34,0,0,1,5.36,1.81,9.52,9.52,0,0,1,3.72,2.86,7.89,7.89,0,0,1,1.59,5.14,8.78,8.78,0,0,1-1.7,5.49,10.1,10.1,0,0,1-4.58,3.29,18.38,18.38,0,0,1-6.41,1.07,26,26,0,0,1-8.07-1.31,22.83,22.83,0,0,1-7-3.59l3.7-7.53a20.4,20.4,0,0,0,5.72,3.38,15.94,15.94,0,0,0,5.76,1.39,3.32,3.32,0,0,0,1.77-.4,1.41,1.41,0,0,0,.64-1.27,1.79,1.79,0,0,0-1.22-1.62,23,23,0,0,0-3.85-1.22,40.62,40.62,0,0,1-5.32-1.7,9.52,9.52,0,0,1-3.68-2.74,7.45,7.45,0,0,1-1.55-4.94,8.91,8.91,0,0,1,1.6-5.27,10,10,0,0,1,4.51-3.47A17.87,17.87,0,0,1,131,232a25.84,25.84,0,0,1,7,1,23,23,0,0,1,6.08,2.62l-3.61,7.62a33.14,33.14,0,0,0-5.46-2.5" transform="translate(-36.74 -42.13)"/><rect class="cls-2" x="112.3" y="190.61" width="9.98" height="30.16"/><path class="cls-2" d="M189.48,234.12a15,15,0,0,1,5.91,5.59,15.42,15.42,0,0,1,2.13,8,15.71,15.71,0,0,1-2.13,8.13,15,15,0,0,1-5.91,5.66,18.81,18.81,0,0,1-17,0,14.94,14.94,0,0,1-5.92-5.66,15.71,15.71,0,0,1-2.13-8.13,15.49,15.49,0,0,1,2.13-8.09,14.72,14.72,0,0,1,5.92-5.57,19.06,19.06,0,0,1,17,0m-11.6,7.25a6.93,6.93,0,0,0-2.37,2.65,8.07,8.07,0,0,0-.88,3.78,8.23,8.23,0,0,0,.88,3.81,7.13,7.13,0,0,0,2.37,2.69,5.68,5.68,0,0,0,3.21,1,5.44,5.44,0,0,0,3.14-1,6.7,6.7,0,0,0,2.24-2.69,8.88,8.88,0,0,0,.81-3.83,8.79,8.79,0,0,0-.81-3.81,6.55,6.55,0,0,0-2.24-2.64,5.58,5.58,0,0,0-3.14-.95,5.73,5.73,0,0,0-3.21,1" transform="translate(-36.74 -42.13)"/><polygon class="cls-2" points="186.43 190.61 195.47 190.61 195.47 220.77 187.12 220.77 175.24 205.37 175.24 220.77 166.16 220.77 166.16 190.61 174.51 190.61 186.43 206.1 186.43 190.61"/></svg>