<?xml version="1.0" encoding="utf-8"?>
<!-- Generator: Adobe Illustrator 23.0.1, SVG Export Plug-In . SVG Version: 6.00 Build 0)  -->
<svg version="1.1" id="Capa_1" xmlns="http://www.w3.org/2000/svg" xmlns:xlink="http://www.w3.org/1999/xlink" x="0px" y="0px"
	 viewBox="0 0 512 512" style="enable-background:new 0 0 512 512;" xml:space="preserve">
<style type="text/css">
	.st0{fill:#2BE2B3;}
</style>
<g>
	<polygon class="st0" points="463.6,3.9 463.6,97.8 436.4,97.8 436.4,3.9 409.5,3.9 409.5,97.8 382,97.8 382,4.2 355,4.2 355,97.8 
		327.6,97.8 327.6,4.2 300.6,4.2 300.6,97.8 214,97.8 214,4.2 187,4.2 187,124.8 463.6,124.8 463.6,151.6 159.4,151.6 159.4,3.9 
		132.4,3.9 132.4,178.6 463.6,178.6 463.6,206.4 436.2,206.4 104.9,206.4 104.9,3.9 77.9,3.9 77.9,206.4 50.3,206.4 50.3,3.9 
		23.3,3.9 23.3,435.9 50.3,435.9 50.3,342 77.7,342 77.7,435.9 104.7,435.9 104.7,342 132.1,342 132.1,435.6 159.1,435.6 159.1,342 
		186.5,342 186.5,435.6 213.5,435.6 213.5,342 300.2,342 300.2,435.6 327.2,435.6 327.2,315 50.3,315 50.3,288.2 354.8,288.2 
		354.8,435.9 381.8,435.9 381.8,261.2 50.3,261.2 50.3,233.4 77.9,233.4 409.2,233.4 409.2,435.9 436.2,435.9 436.2,233.4 
		463.6,233.4 463.6,435.9 490.6,435.9 490.6,3.9 	"/>
	<polygon class="st0" points="474.8,458 474.8,480.4 452.1,458 436.3,458 436.3,508.1 452.1,508.1 452.1,485.3 475,508.1 
		490.7,508.1 490.7,458 	"/>
	<polygon class="st0" points="244.4,472.1 244.4,458 202.3,458 188.3,458 186.6,458 186.6,508.1 188.3,508.1 202.3,508.1 
		244.4,508.1 244.4,494.1 202.3,494.1 202.3,472.1 	"/>
	<polygon class="st0" points="409.3,472 409.3,458 370.5,458 356.1,458 354.8,458 354.8,508.1 356.4,508.1 370.5,508.1 409.3,508.1 
		409.3,494.1 370.5,494.1 370.5,489.9 409.3,489.9 409.3,476 370.5,476 370.5,472 	"/>
	<path class="st0" d="M157.1,458h-13.3h-23.3h-12.4h-3.3v24.9v13.9v11.3h15.7v-11.3h23.3v11.3h15.7V458H157.1z M120.5,482.9v-10.9
		h23.3v10.9H120.5z"/>
	<polygon class="st0" points="62,458 62,475.4 39.1,475.4 39.1,458 23.4,458 23.4,508.1 39.1,508.1 39.1,490.3 62,490.3 62,508.1 
		77.8,508.1 77.8,458 	"/>
	<g>
		<polygon class="st0" points="327.2,475.2 327.2,458 311.6,458 311.6,475.2 287.2,475.2 287.2,458 271.5,458 271.5,508.1 
			287.2,508.1 287.2,490.1 311.6,490.1 327.2,475.2 		"/>
		<rect x="311.6" y="490.1" class="st0" width="15.7" height="18"/>
	</g>
</g>
</svg>
