<?xml version="1.0" encoding="UTF-8"?>
<svg width="28px" height="28px" viewBox="0 0 28 28" version="1.1" xmlns="http://www.w3.org/2000/svg" xmlns:xlink="http://www.w3.org/1999/xlink">
    <!-- Generator: Sketch 52.3 (67297) - http://www.bohemiancoding.com/sketch -->
    <title>huobi</title>
    <desc>Created with Sketch.</desc>
    <g id="Wallet" stroke="none" stroke-width="1" fill="none" fill-rule="evenodd">
        <g id="All-Tokens" transform="translate(-385.000000, -539.000000)" fill="#313944" fill-rule="nonzero">
            <g id="huobi" transform="translate(385.000000, 539.000000)">
                <path d="M14,0 C6.269375,0 0,6.269375 0,14 C0,17.24625 1.106875,20.234375 2.961875,22.61 L1.561875,27.3 C1.526875,27.41375 1.6275,27.523125 1.745625,27.496875 L7.32375,26.306875 C9.305625,27.3875 11.580625,28 14,28 C21.730625,28 28,21.730625 28,14 C28,6.269375 21.730625,0 14,0 Z M19.34625,22.098125 L15.77625,22.098125 L15.77625,14.336875 C15.77625,14.336875 15.824375,13.278125 14.665,13.4225 C13.505625,13.566875 12.420625,14 12.420625,14 L12.420625,22.1025 L8.649375,22.1025 L8.649375,5.1275 L12.3725,3.7275 L12.3725,11.13 C12.3725,11.13 13.67625,10.43 16.23125,10.408125 C16.996875,10.399375 17.574375,10.521875 18.011875,10.688125 C18.82125,10.99875 19.341875,11.795 19.341875,13.20375 L19.341875,22.098125 L19.34625,22.098125 Z" id="Shape"></path>
            </g>
        </g>
    </g>
</svg>