<svg id="Layer_1" data-name="Layer 1" xmlns="http://www.w3.org/2000/svg" viewBox="0 0 124.78222 113.88447"><defs><style>.cls-1{fill:#a51d30;}.cls-2{fill:#db2736;}.cls-3{fill:#5c3b62;}.cls-4{fill:#5d456a;}.cls-5{fill:#de2435;}.cls-6{fill:#eb3441;}.cls-7{fill:#c42330;}.cls-8{fill:#a42127;}.cls-9{fill:#c82532;}.cls-10{fill:#a34042;}.cls-11{fill:#c9423f;}.cls-12{fill:#a31f25;}.cls-13{fill:#556d96;}.cls-14{fill:#de4d4d;}.cls-15{fill:#6c121b;}.cls-16{fill:#982239;}</style></defs><polygon class="cls-1" points="51.35 16.345 53.997 42.712 63.888 12.652 51.35 16.345"/><polygon class="cls-2" points="35.091 0 51.35 16.345 63.888 12.652 35.091 0"/><polygon class="cls-3" points="47.799 40.87 53.997 42.712 51.35 16.345 35.091 0 47.799 40.87"/><polygon class="cls-4" points="21.804 2.762 36.608 52.214 21.487 78.017 0 29.448 21.804 2.762"/><polygon class="cls-5" points="79.242 11.512 93.642 33.676 67.444 46.515 79.242 11.512"/><polygon class="cls-6" points="109.835 3.625 93.642 33.676 79.242 11.512 109.835 3.625"/><polygon class="cls-7" points="124.782 36.634 93.642 33.676 109.835 3.625 124.782 36.634"/><path class="cls-8" d="M107.52239,60.16535c-.62288-1.09-13.88071-26.48979-13.88071-26.48979l31.14054,2.95817Z"/><polygon class="cls-9" points="67.444 46.515 107.522 60.165 93.642 33.676 67.444 46.515"/><polygon class="cls-10" points="50.83 54.8 71.184 111.205 97.89 71.349 50.83 54.8"/><polygon class="cls-11" points="56.906 113.884 21.487 78.017 36.608 52.214 56.906 113.884"/><polygon class="cls-2" points="68.753 72.123 71.184 111.205 50.83 54.8 68.753 72.123"/><polygon class="cls-9" points="97.89 71.349 68.753 72.123 50.83 54.8 97.89 71.349"/><polygon class="cls-12" points="71.184 111.205 68.753 72.123 97.89 71.349 71.184 111.205"/><polygon class="cls-13" points="0 29.448 36.608 52.214 21.804 2.762 0 29.448"/><polygon class="cls-14" points="36.608 52.214 21.487 78.017 46.742 83.003 36.608 52.214"/><polygon class="cls-15" points="56.906 113.884 21.487 78.017 36.608 52.214 56.906 113.884"/><polygon class="cls-16" points="36.608 52.214 21.487 78.017 46.742 83.003 36.608 52.214"/></svg>