<svg xmlns="http://www.w3.org/2000/svg" viewBox="0 0 1024 1024">
  <title>KAM_Logo_C copy 2</title>
  <path d="M977.61,498.37l-131.3,3.17c-.36,0-.71.09-1.06.12s-.87.07-1.31.14a16.18,16.18,0,0,0-1.8.42c-.44.12-.88.21-1.31.37a17.85,17.85,0,0,0-2.19,1c-.27.14-.55.26-.82.42a16.59,16.59,0,0,0-2.26,1.57l-123.44,102-184-106.5V401.33l183,16.66c.23,0,.45,0,.68,0h1.1a16.66,16.66,0,0,0,2.34-.19c.21,0,.41,0,.62-.05a2.17,2.17,0,0,0,.24-.07,16.8,16.8,0,0,0,3-.87c.25-.1.47-.23.72-.34a15.68,15.68,0,0,0,1.55-.74l88.28-50.35L954.54,428a17.54,17.54,0,0,0,13.91-32.2l-120.67-52.1,74.53-42.51a17.53,17.53,0,1,0-17.38-30.46L725.51,373,702,244.31l145-29.39a17.53,17.53,0,0,0-7-34.37l-123.25,25,47.69-80.88a17.53,17.53,0,1,0-30.21-17.81L670.09,215.6a18,18,0,0,0-1.51,3.32,17.39,17.39,0,0,0-4.19,14.78L691.31,381,528.17,366.12V178.42L644.51,82.87a17.54,17.54,0,0,0-22.26-27.1L528.17,133V53.53a17.54,17.54,0,0,0-35.07,0h0V251.44L372.56,213,411.81,74.09a17.53,17.53,0,1,0-33.74-9.54L344.45,183.46l-52.51-77.54a17.53,17.53,0,0,0-29,19.66l73.65,108.76c.2.29.45.55.67.83s.53.69.83,1a16.07,16.07,0,0,0,1.32,1.29c.34.31.66.62,1,.9a16.91,16.91,0,0,0,2,1.31c.27.15.52.33.8.47a17.63,17.63,0,0,0,2.54,1.05l147.36,47V501.06L402.66,553.2l-77-162.61c-.06-.12-.16-.21-.23-.33a17.17,17.17,0,0,0-2.36-3.64c-.08-.1-.18-.16-.26-.25s-.39-.35-.57-.54a17.63,17.63,0,0,0-3.25-2.58c-.17-.11-.3-.28-.47-.38l-88.21-50.46L210.65,175.84a17.53,17.53,0,1,0-34.79,4.38l16.41,130.4L117.79,268a17.53,17.53,0,0,0-17.41,30.44L279.68,401l-98.93,85.65-99-110a17.54,17.54,0,0,0-26.07,23.46l84.14,93.48H46a17.54,17.54,0,0,0,0,35.07H172.21a17.33,17.33,0,0,0,3.63-.39,17.45,17.45,0,0,0,14.87-3.89l113.18-98,68.28,144.31L202.88,668.35,76.31,607.94A17.54,17.54,0,1,0,61.2,639.59l104.81,50-65.68,37.85a17.54,17.54,0,0,0,17.52,30.39l94.69-54.59h0l82-47.28,17.28,127.75L169.58,807.84a17.53,17.53,0,1,0,5.86,34.57l121.84-20.65-47.52,80.7A17.53,17.53,0,0,0,280,920.25l66.65-113.18c.18-.31.3-.64.46-1s.4-.78.57-1.19a17.8,17.8,0,0,0,.59-1.74c.13-.44.28-.87.38-1.32a17.23,17.23,0,0,0,.32-2.38c0-.3.07-.59.08-.9a17,17,0,0,0-.14-2.76L327.42,637l183.2-105.59,75.88,43.93L486,729.71c-.13.19-.21.41-.33.61s-.35.62-.52.94a16.22,16.22,0,0,0-.94,2.19c-.07.19-.18.36-.24.55a2,2,0,0,1,0,.24,18,18,0,0,0-.64,3.09c0,.26,0,.51,0,.78a16.56,16.56,0,0,0-.08,1.73l3.24,101.57-123,98.82a17.53,17.53,0,0,0,22,27.34l102.47-82.3L490.54,971a17.53,17.53,0,1,0,35.05-1.11L519,763.45l124.78,39.38L602,944.74a17.54,17.54,0,0,0,33.65,9.9L671.16,834l49.2,80a17.54,17.54,0,1,0,29.87-18.38L684.08,788.07a17.77,17.77,0,0,0-2.23-2.89,17.43,17.43,0,0,0-11.11-10.62L528,729.5,616.9,593,799.49,698.69l11,146.63a17.53,17.53,0,1,0,35-2.63L836.26,720l65.39,37.86a17.53,17.53,0,0,0,17.57-30.35L825,672.91h0l-80.47-46.59,100.34-82.93,95.61,108.1a17.54,17.54,0,0,0,26.27-23.24l-81.87-92.56,93.62-2.26a17.54,17.54,0,1,0-.85-35.06Z" style="fill: #1aeec2"/>
</svg>
