<svg xmlns="http://www.w3.org/2000/svg" viewBox="0 0 28 28"><g id="Layer_3" data-name="Layer 3"><g id="GuUxeI.tif"><path d="M.74181,26.44439a.93252.93252,0,0,1-.12938-1.17571.32348.32348,0,0,1,.26623-.13987,8.45383,8.45383,0,0,0,1.33716-.14573,1.86714,1.86714,0,0,0,1.53756-1.50045,6.38618,6.38618,0,0,0,.17776-1.559q.00472-7.92069,0-15.84137A6.20649,6.20649,0,0,0,3.756,4.53442,1.88853,1.88853,0,0,0,2.04368,2.98281,10.44126,10.44126,0,0,0,.85021,2.869a.27172.27172,0,0,1-.20529-.09848.96676.96676,0,0,1,.0006-1.12811.25723.25723,0,0,1,.21907-.08737c2.59642.06175,5.1932.09187,7.79031.06364,1.238-.01345,2.47585-.03922,3.71366-.06484a.28377.28377,0,0,1,.257.12754.99738.99738,0,0,1,.00881,1.0393.32228.32228,0,0,1-.27158.15054,8.2885,8.2885,0,0,0-1.35914.15116A1.846,1.846,0,0,0,9.5052,4.4508a6.30815,6.30815,0,0,0-.197,1.65824C9.30286,8.453,9.3057,10.7969,9.30279,13.14083c-.00013.09976.02329.11.11333.07935a7.42954,7.42954,0,0,0,1.91744-1.02671c.83961-.59982,1.61678-1.27626,2.39333-1.95348.91589-.79874,1.85715-1.568,2.76484-2.37628a27.88456,27.88456,0,0,0,2.0551-1.94493A5.738,5.738,0,0,0,19.55375,4.532a1.59485,1.59485,0,0,0,.14756-.46112.806.806,0,0,0-.43386-.88984,2.78458,2.78458,0,0,0-1.11438-.30787.18054.18054,0,0,1-.17055-.12039,1.49139,1.49139,0,0,1,.00077-1.09311c.03295-.08675.09475-.1074.18577-.10471,1.90929.05647,3.81893.08917,5.72913.06761.80017-.009,1.60023-.02805,2.39951-.06754a.17569.17569,0,0,1,.20271.1306A1.52848,1.52848,0,0,1,26.5016,2.727a.2197.2197,0,0,1-.19741.154,7.11249,7.11249,0,0,0-2.46362.95243,19.2845,19.2845,0,0,0-2.9341,2.19144c-1.7801,1.565-3.54918,3.1425-5.3238,4.71373a1.41034,1.41034,0,0,0-.47967,1.13873,1.01187,1.01187,0,0,0,.21851.51407,13.575,13.575,0,0,0,1.10835,1.41635q4.07872,4.8246,8.16033,9.64676A4.80855,4.80855,0,0,0,26.02661,24.681a4.457,4.457,0,0,0,1.41078.427c.033.00492.06526.01511.09787.02285,0,.4152-.00128.8304.00151,1.24558.00037.05666-.01252.0723-.06953.06946-.10543-.00526-.21132-.00151-.317-.00151a.2714.2714,0,0,0-.1223-.01562c-.24513-.00526-.49035-.0074-.73544-.01441-2.21786-.0635-4.43559-.05507-6.65321.01174a.31106.31106,0,0,0-.14432.01829h-.40768a.32967.32967,0,0,1-.11245-.22381,2.61961,2.61961,0,0,0-.17034-.61973,8.87988,8.87988,0,0,0-1.26057-2.136q-2.25447-2.94264-4.51274-5.88235c-.56833-.73839-1.11463-1.49412-1.72144-2.20254A3.55685,3.55685,0,0,0,9.4068,14.18584c-.09688-.02332-.10357.00333-.1035.08562q.00325,3.81006.00492,7.6201a6.29986,6.29986,0,0,0,.197,1.65812A1.84552,1.84552,0,0,0,11.0036,24.9779a8.42487,8.42487,0,0,0,1.37037.15175.30567.30567,0,0,1,.2403.12227.927.927,0,0,1-.11777,1.19247h-.54357a6.54472,6.54472,0,0,0-.75639-.02458c-3.195-.07031-6.39009-.0577-9.58507.00583a1.1581,1.1581,0,0,0-.30344.01875Z"/></g></g></svg>