<svg id="Layer_1" data-name="Layer 1" xmlns="http://www.w3.org/2000/svg" xmlns:xlink="http://www.w3.org/1999/xlink" viewBox="0 0 28 28"><defs><style>.cls-1{fill:url(#linear-gradient);}.cls-2{fill:#fff;}</style><linearGradient id="linear-gradient" x1="-247.38572" y1="-502.61428" x2="-219.38572" y2="-502.61428" gradientTransform="translate(516.61428 -219.38572) rotate(-90)" gradientUnits="userSpaceOnUse"><stop offset="0" stop-color="#00cebd"/><stop offset="1" stop-color="#826aff"/></linearGradient></defs><circle class="cls-1" cx="14" cy="14" r="14"/><path class="cls-2" d="M6.481,15.58344H6.47949a1.34278,1.34278,0,0,0,2.68555,0H9.16345V13.93311H6.481Z"/><path class="cls-2" d="M21.645,13.93311V15.006h.00055a.98792.98792,0,0,0,1.97583,0h.00055V13.93311Z"/><path class="cls-2" d="M11.26648,18.61224h-.0044a1.65235,1.65235,0,1,0,3.30469,0h.0044V13.93311H11.26648Z"/><path class="cls-2" d="M17.70215,17.71655h-.00031a.98847.98847,0,1,0,1.97693,0h-.0003V13.93311H17.70215Z"/><path class="cls-2" d="M5.42957,11.80859a1.05151,1.05151,0,0,0-1.05152,1.05152v1.073H6.481v-1.073A1.05149,1.05149,0,0,0,5.42957,11.80859Z"/><path class="cls-2" d="M10.215,9.70789A1.0515,1.0515,0,0,0,9.16345,10.7594v3.17371h2.103V10.7594A1.05149,1.05149,0,0,0,10.215,9.70789Z"/><path class="cls-2" d="M17.70642,9.30511a1.56973,1.56973,0,0,0-3.13946,0h.00421v4.628h3.131v-4.628Z"/><path class="cls-2" d="M20.66174,9.845a.98326.98326,0,0,0-.98327.98328v3.10486H21.645V10.82825A.98327.98327,0,0,0,20.66174,9.845Z"/></svg>