<svg id="Layer_1" data-name="Layer 1" xmlns="http://www.w3.org/2000/svg" xmlns:xlink="http://www.w3.org/1999/xlink" viewBox="0 0 62.45 43.21"><defs><style>.cls-1{fill:#fff;}.cls-2{mask:url(#mask);}.cls-3{fill:#202125;}</style><mask id="mask" x="0" y="0" width="163.44" height="43.21" maskUnits="userSpaceOnUse"><g transform="translate(-0.97 -0.59)"><g id="mask-6"><polygon id="path-5" class="cls-1" points="0.97 43.8 164.41 43.8 164.41 0.59 0.97 0.59 0.97 43.8"/></g></g></mask></defs><title>NOIA (Dark Mark - SVG</title><g id="noia-logo-white-svg"><g id="Group-40"><g id="Fill-7-Clipped"><g class="cls-2"><polygon id="Fill-7" class="cls-3" points="2.65 40.45 3.93 40.45 3.93 20.98 2.65 20.98 2.65 40.45"/></g></g><g id="Fill-8-Clipped"><g class="cls-2"><polygon id="Fill-8" class="cls-3" points="58.5 23.05 59.79 23.05 59.79 3.26 58.5 3.26 58.5 23.05"/></g></g><g id="Fill-9-Clipped"><g class="cls-2"><polygon id="Fill-9" class="cls-3" points="30.76 31.48 50.9 31.48 50.9 30.21 30.76 30.21 30.76 31.48"/></g></g><g id="Fill-10-Clipped"><g class="cls-2"><polygon id="Fill-10" class="cls-3" points="3.29 31.48 13.44 31.48 13.44 30.21 3.29 30.21 3.29 31.48"/></g></g><g id="Fill-11-Clipped"><g class="cls-2"><polygon id="Fill-11" class="cls-3" points="3.29 22.29 59.15 22.29 59.15 21.02 3.29 21.02 3.29 22.29"/></g></g><g id="Fill-12-Clipped"><g class="cls-2"><polygon id="Fill-12" class="cls-3" points="49.53 13.11 59.15 13.11 59.15 11.84 49.53 11.84 49.53 13.11"/></g></g><g id="Fill-13-Clipped"><g class="cls-2"><polygon id="Fill-13" class="cls-3" points="12.47 13.11 33.42 13.11 33.42 11.84 12.47 11.84 12.47 13.11"/></g></g><g id="Fill-14-Clipped"><g class="cls-2"><polygon id="Fill-14" class="cls-3" points="49.19 31.31 50.48 31.31 50.48 10.88 49.19 10.88 49.19 31.31"/></g></g><g id="Fill-15-Clipped"><g class="cls-2"><polygon id="Fill-15" class="cls-3" points="39.88 40.03 41.17 40.03 41.17 20.42 39.88 20.42 39.88 40.03"/></g></g><g id="Fill-16-Clipped"><g class="cls-2"><polygon id="Fill-16" class="cls-3" points="30.57 32.19 31.86 32.19 31.86 11.52 30.57 11.52 30.57 32.19"/></g></g><g id="Fill-17-Clipped"><g class="cls-2"><polygon id="Fill-17" class="cls-3" points="21.26 22.17 22.55 22.17 22.55 1.66 21.26 1.66 21.26 22.17"/></g></g><g id="Fill-18-Clipped"><g class="cls-2"><polygon id="Fill-18" class="cls-3" points="11.96 31.99 13.24 31.99 13.24 11.44 11.96 11.44 11.96 31.99"/></g></g><g id="Fill-19-Clipped"><g class="cls-2"><path id="Fill-19" class="cls-3" d="M7.57,31.37a3.3,3.3,0,1,0-3.3,3.26,3.28,3.28,0,0,0,3.3-3.26" transform="translate(-0.97 -0.59)"/></g></g><g id="Fill-20-Clipped"><g class="cls-2"><path id="Fill-20" class="cls-3" d="M16.88,31.37a3.3,3.3,0,1,0-3.3,3.26,3.28,3.28,0,0,0,3.3-3.26" transform="translate(-0.97 -0.59)"/></g></g><g id="Fill-21-Clipped"><g class="cls-2"><path id="Fill-21" class="cls-3" d="M35.5,31.37a3.31,3.31,0,1,0-3.31,3.26,3.28,3.28,0,0,0,3.31-3.26" transform="translate(-0.97 -0.59)"/></g></g><g id="Fill-22-Clipped"><g class="cls-2"><path id="Fill-22" class="cls-3" d="M44.8,31.37a3.3,3.3,0,1,0-3.3,3.26,3.28,3.28,0,0,0,3.3-3.26" transform="translate(-0.97 -0.59)"/></g></g><g id="Fill-23-Clipped"><g class="cls-2"><path id="Fill-23" class="cls-3" d="M54.11,31.37a3.31,3.31,0,1,0-3.3,3.26,3.28,3.28,0,0,0,3.3-3.26" transform="translate(-0.97 -0.59)"/></g></g><g id="Fill-24-Clipped"><g class="cls-2"><path id="Fill-24" class="cls-3" d="M7.57,40.54a3.3,3.3,0,1,0-3.3,3.26,3.28,3.28,0,0,0,3.3-3.26" transform="translate(-0.97 -0.59)"/></g></g><g id="Fill-25-Clipped"><g class="cls-2"><path id="Fill-25" class="cls-3" d="M44.8,40.54a3.3,3.3,0,1,0-3.3,3.26,3.28,3.28,0,0,0,3.3-3.26" transform="translate(-0.97 -0.59)"/></g></g><g id="Fill-26-Clipped"><g class="cls-2"><path id="Fill-26" class="cls-3" d="M7.57,22.19a3.3,3.3,0,1,0-3.3,3.26,3.28,3.28,0,0,0,3.3-3.26" transform="translate(-0.97 -0.59)"/></g></g><g id="Fill-27-Clipped"><g class="cls-2"><path id="Fill-27" class="cls-3" d="M16.88,22.19a3.3,3.3,0,1,0-3.3,3.26,3.28,3.28,0,0,0,3.3-3.26" transform="translate(-0.97 -0.59)"/></g></g><g id="Fill-28-Clipped"><g class="cls-2"><path id="Fill-28" class="cls-3" d="M26.19,22.19a3.31,3.31,0,1,0-3.3,3.26,3.28,3.28,0,0,0,3.3-3.26" transform="translate(-0.97 -0.59)"/></g></g><g id="Fill-29-Clipped"><g class="cls-2"><path id="Fill-29" class="cls-3" d="M35.5,22.19a3.31,3.31,0,1,0-3.31,3.26,3.28,3.28,0,0,0,3.31-3.26" transform="translate(-0.97 -0.59)"/></g></g><g id="Fill-30-Clipped"><g class="cls-2"><path id="Fill-30" class="cls-3" d="M44.8,22.19a3.3,3.3,0,1,0-3.3,3.26,3.28,3.28,0,0,0,3.3-3.26" transform="translate(-0.97 -0.59)"/></g></g><g id="Fill-31-Clipped"><g class="cls-2"><path id="Fill-31" class="cls-3" d="M54.11,22.19a3.31,3.31,0,1,0-3.3,3.26,3.28,3.28,0,0,0,3.3-3.26" transform="translate(-0.97 -0.59)"/></g></g><g id="Fill-32-Clipped"><g class="cls-2"><path id="Fill-32" class="cls-3" d="M63.42,22.19a3.31,3.31,0,1,0-3.31,3.26,3.28,3.28,0,0,0,3.31-3.26" transform="translate(-0.97 -0.59)"/></g></g><g id="Fill-33-Clipped"><g class="cls-2"><path id="Fill-33" class="cls-3" d="M16.88,13a3.3,3.3,0,1,0-3.3,3.26A3.28,3.28,0,0,0,16.88,13" transform="translate(-0.97 -0.59)"/></g></g><g id="Fill-34-Clipped"><g class="cls-2"><path id="Fill-34" class="cls-3" d="M26.19,13a3.31,3.31,0,1,0-3.3,3.26A3.28,3.28,0,0,0,26.19,13" transform="translate(-0.97 -0.59)"/></g></g><g id="Fill-35-Clipped"><g class="cls-2"><path id="Fill-35" class="cls-3" d="M35.5,13a3.31,3.31,0,1,0-3.31,3.26A3.28,3.28,0,0,0,35.5,13" transform="translate(-0.97 -0.59)"/></g></g><g id="Fill-36-Clipped"><g class="cls-2"><path id="Fill-36" class="cls-3" d="M54.11,13a3.31,3.31,0,1,0-3.3,3.26A3.28,3.28,0,0,0,54.11,13" transform="translate(-0.97 -0.59)"/></g></g><g id="Fill-37-Clipped"><g class="cls-2"><path id="Fill-37" class="cls-3" d="M63.42,13a3.31,3.31,0,1,0-3.31,3.26A3.28,3.28,0,0,0,63.42,13" transform="translate(-0.97 -0.59)"/></g></g><g id="Fill-38-Clipped"><g class="cls-2"><path id="Fill-38" class="cls-3" d="M26.19,3.84a3.31,3.31,0,0,0-6.61,0,3.31,3.31,0,0,0,6.61,0" transform="translate(-0.97 -0.59)"/></g></g><g id="Fill-39-Clipped"><g class="cls-2"><path id="Fill-39" class="cls-3" d="M63.42,3.84a3.31,3.31,0,0,0-6.61,0,3.31,3.31,0,0,0,6.61,0" transform="translate(-0.97 -0.59)"/></g></g></g></g></svg>