<svg id="Layer_1" data-name="Layer 1" xmlns="http://www.w3.org/2000/svg" viewBox="0 0 124 124"><defs><style>.cls-1{fill:#101010;}</style></defs><title>OMG Network Token Glyph</title><path class="cls-1" d="M62,0h0A62,62,0,0,0,0,62H0a62,62,0,0,0,62,62h0a62,62,0,0,0,62-62h0A62,62,0,0,0,62,0ZM29.31,77.51C20.24,77.51,14.5,70.72,14.5,62s5.74-15.53,14.81-15.53S44.13,53.33,44.13,62,38.39,77.51,29.31,77.51Zm49-.76H73.14V55.94L65.55,76.75H60.61L53,55.94V76.75H48V47.21h7l8.19,22.58,8.19-22.58h7Zm18.29-4.39c4,0,7.14-2,7.64-6.33H95.74V60.92H109.5V76.75h-5.11V73.38c-1.09,1.89-3.8,4.13-8.65,4.13-8.27,0-13.59-6.58-13.59-15.28,0-8.1,4.6-15.7,14.48-15.7,7,0,12.11,3.76,12.87,10.51h-5.61c-.34-3.33-3.51-5.36-7.43-5.36-6,0-8.82,4.69-8.82,10.38C87.64,68.14,90.84,72.36,96.58,72.36Z"/><path class="cls-1" d="M29.31,51.77c-5.78,0-9.24,4.39-9.24,10.25s3.46,10.22,9.24,10.22S38.56,67.89,38.56,62,35.1,51.77,29.31,51.77Z"/></svg>