<svg xmlns="http://www.w3.org/2000/svg" viewBox="0 0 474 474"><defs><style>.cls-1{isolation:isolate;}.cls-2{fill:#f66;}.cls-3{fill:#d95e59;}.cls-4,.cls-5{fill:#f4f7e2;}.cls-4{fill-rule:evenodd;}.cls-6{fill:#345d9d;}.cls-7{fill:#fff;}</style></defs><g id="Livello_2" data-name="Livello 2"><g id="Livello_1-2" data-name="Livello 1"><g class="cls-1"><circle class="cls-2" cx="237" cy="237" r="237"/><path class="cls-3" d="M474,237A236.27,236.27,0,0,0,401,65.92L65.92,401A236.27,236.27,0,0,0,237,474C367.89,474,474,367.89,474,237Z"/><path class="cls-4" d="M237,474a236.19,236.19,0,0,0,161.69-63.74,207,207,0,0,0-329.14-5.55A236.24,236.24,0,0,0,237,474Z"/><circle class="cls-5" cx="237" cy="237" r="162.5"/></g><g id="litecoin-ltc-logo"><path id="Shape" class="cls-6" d="M237,101c-75.62,0-136.91,60.89-136.91,136S161.38,373,237,373s136.91-60.89,136.91-136a135.12,135.12,0,0,0-40-96.28A137,137,0,0,0,237,101Z"/><path id="Path" class="cls-7" d="M240,241.36l-14.34,47.55h76.72a3.89,3.89,0,0,1,2.88,1.11,3.82,3.82,0,0,1,1.13,2.82v1l-6.68,22.63a5,5,0,0,1-5,3.61H177.27L197,254.15l-22,6.56,5-15.09,22-6.55,27.69-92.47a5,5,0,0,1,5-3.61h29.68a3.93,3.93,0,0,1,2.88,1.11,3.76,3.76,0,0,1,1.13,2.82v1L245,226l22-6.56-4.67,15.74Z"/></g></g></g></svg>