<?xml version="1.0" encoding="UTF-8"?>
<svg width="108px" height="108px" viewBox="0 0 108 108" version="1.1" xmlns="http://www.w3.org/2000/svg" xmlns:xlink="http://www.w3.org/1999/xlink">
    <!-- Generator: Sketch 63.1 (92452) - https://sketch.com -->
    <title>rep_v2</title>
    <desc>Created with Sketch.</desc>
    <defs>
        <polyline id="path-1" points="5.68434189e-14 3.55271368e-15 54.8065601 3.64778791e-15 5.68434189e-14 54.8065601"></polyline>
        <filter x="-29.2%" y="-25.5%" width="158.4%" height="158.4%" filterUnits="objectBoundingBox" id="filter-2">
            <feOffset dx="0" dy="2" in="SourceAlpha" result="shadowOffsetOuter1"></feOffset>
            <feGaussianBlur stdDeviation="5" in="shadowOffsetOuter1" result="shadowBlurOuter1"></feGaussianBlur>
            <feColorMatrix values="0 0 0 0 0   0 0 0 0 0   0 0 0 0 0  0 0 0 0.5 0" type="matrix" in="shadowBlurOuter1"></feColorMatrix>
        </filter>
    </defs>
    <g id="rep_v2" stroke="none" stroke-width="1" fill="none" fill-rule="evenodd">
        <g id="rep" fill-rule="nonzero">
            <path d="M53.8755045,107.830961 C24.2007582,107.830961 0.144161194,83.7743642 0.144161194,54.099618 C0.144161194,24.4243343 24.2007582,0.368274627 53.8755045,0.368274627 C83.550788,0.368274627 107.606848,24.4243343 107.606848,54.099618 C107.606848,83.7743642 83.550788,107.830961 53.8755045,107.830961 Z" id="Fill-89" fill="#602453"></path>
            <path d="M52.4385672,21.4016776 C52.4229852,21.3946925 52.4068658,21.3882448 52.3907464,21.3812597 C43.8227461,36.7747522 35.2547463,52.1682448 26.6867463,67.5617374 C26.8044179,67.5477672 26.883403,67.5047821 26.9629254,67.4612596 C27.8618508,66.9701551 28.7527164,66.4645434 29.6613134,65.9911702 C31.7718806,64.8912897 33.9254328,63.8886628 36.1912836,63.1428715 C36.764597,62.9537373 37.3540299,62.8854987 37.9504478,62.9204239 C39.2797612,62.9988717 40.5016119,63.4518267 41.6831643,64.0342746 C43.4820894,64.920842 45.0311643,66.1443045 46.5146866,67.483827 C47.9288957,68.7604834 49.6053134,69.5917074 51.4805374,69.9855583 C51.977015,70.0897972 52.4820897,70.1515882 53.0075822,70.2375582 C52.9737312,70.2848417 52.9538507,70.3240658 52.9237611,70.3530807 C52.1967761,71.0451401 51.5514626,71.8000655 51.0657314,72.6855583 C51.0334926,72.7446628 50.8760599,72.786573 50.800836,72.7623941 C49.8970746,72.4706329 48.9739701,72.2223941 48.1040598,71.850036 C46.8843583,71.3272299 45.7146269,70.6964239 44.7184476,69.7910507 C43.6250151,68.797021 42.449373,67.9104536 41.1732539,67.1625135 C40.3199999,66.6628118 39.4484777,66.1937373 38.4797015,65.953558 C38.0364179,65.8439461 37.5813134,65.737558 37.1262089,65.892842 C36.5297911,66.0959464 35.9328358,66.3012 35.3460896,66.5317075 C32.9050746,67.4902746 30.5989254,68.7228717 28.3217911,70.0129614 C27.7345075,70.3460955 27.1579701,70.6991104 26.549194,71.058573 C35.1671642,76.190991 43.7555821,81.3062151 52.3961194,86.4515283 L52.3961194,86.0485433 C52.3961194,82.6962449 52.3955821,79.3439461 52.3966567,75.992185 C52.3966567,75.8089611 52.3961194,75.6251999 52.4165372,75.4441255 C52.5449553,74.3184539 53.0752836,73.3792299 53.801194,72.5420957 C55.1541493,70.9811999 56.8730148,69.9339759 58.7181493,69.0651402 C61.4536119,67.7766628 63.4207166,65.7563643 64.5399402,62.9317076 C64.5807762,62.8290806 64.6285971,62.7291401 64.692,62.5862148 C64.7645374,62.7151703 64.8064476,62.7946926 64.8531939,62.8709912 C65.2685372,63.5490807 65.681194,64.2293195 66.1035222,64.9031103 C66.2287166,65.1035282 66.487164,65.282991 66.493612,65.4785733 C66.5000596,65.6881253 66.2845969,65.9062745 66.1615521,66.1185134 C64.7720596,68.5122447 62.8242985,70.309021 60.3677016,71.5722449 C59.5794628,71.9773791 58.7949852,72.3937971 58.0373733,72.8521255 C57.1964775,73.3604241 56.4232836,73.9643643 55.8150449,74.7515285 C55.5377912,75.110991 55.3223285,75.5010805 55.3223285,75.974991 C55.3228658,79.3820956 55.3228658,82.7897374 55.3234031,86.196842 L55.3234031,86.5407225 C63.9408357,81.3841255 72.5077614,76.2570805 81.1053135,71.1128418 C81.0257912,71.0677075 80.988179,71.0446028 80.9489553,71.0247223 C77.470388,69.2902747 73.9934329,67.5536775 70.5132536,65.8235283 C69.6954626,65.4167822 69.0087762,64.8499164 68.4247164,64.1573194 C66.6714626,62.0789909 65.7402985,59.6164837 65.2142687,56.9981552 C64.919821,55.5334388 64.4260299,54.1783342 63.6748656,52.892006 C62.7920598,51.3805433 61.5922388,50.1689013 60.179642,49.185618 C58.8637611,48.2700357 57.3866868,47.6671701 55.789791,47.4049611 C55.4539701,47.349618 55.1149253,47.3098567 54.7710448,47.2620358 C54.7893134,47.2185134 54.7914626,47.1975583 54.8032836,47.1857373 C55.5297313,46.4684241 56.1793432,45.6920059 56.6699104,44.7893195 C56.6989254,44.7366626 56.8246567,44.6963643 56.8918207,44.7103345 C57.24,44.7850207 57.5881793,44.8650807 57.928836,44.968782 C60.2484179,45.6753492 62.2687164,46.8826924 63.9951045,48.5875881 C65.6532536,50.2253194 66.8837015,52.1322449 67.5773731,54.3583344 C67.7820894,55.0154688 67.8148655,55.7241849 67.9599404,56.4017372 C68.3339104,58.1480061 68.9303285,59.8120655 69.8700897,61.3407222 C70.4020298,62.2041849 71.0715222,62.9150509 72.0032239,63.3776778 C74.9605972,64.8461553 77.9056118,66.3382745 80.8560001,67.8201849 C80.9640001,67.8744537 81.0773731,67.9179762 81.2493134,67.9926628 C72.5652536,52.403588 63.918806,36.8800657 55.2718207,21.3570806 C55.2524775,21.3613791 55.2331344,21.3656776 55.2132539,21.3694388 L55.2132539,21.6853791 C55.2132539,28.2067522 55.2137912,34.7281254 55.211642,41.2489611 C55.211642,41.5235283 55.2078805,41.8002448 55.1697314,42.0710509 C54.9983285,43.3004238 54.3621491,44.2960658 53.5384477,45.1804836 C52.2478207,46.5672896 50.6783285,47.565618 48.9793434,48.3758865 C48.4758806,48.6155285 47.9568357,48.834215 47.4882985,49.1308119 C45.7189253,50.2537971 44.4315225,51.8249016 43.4820894,53.6668119 C42.3257909,55.9090207 42.0786267,58.2979163 42.4864479,60.7674088 C42.5595222,61.2128417 42.6745075,61.651827 42.7717611,62.1004837 C42.733612,62.0951103 42.7148061,62.0961849 42.6981491,62.0897373 C41.7003583,61.7103939 40.7014925,61.3326627 39.7069255,60.9447225 C39.6349254,60.9162448 39.5494924,60.8087821 39.5462686,60.7351701 C39.5075822,59.7862747 39.4264476,58.8346925 39.466209,57.8879464 C39.5543285,55.790812 40.2608957,53.8532596 41.2350449,52.028006 C42.5831642,49.5031701 44.5379106,47.5478868 47.0670449,46.1852596 C47.9202985,45.7253193 48.793433,45.3008418 49.6278807,44.8086627 C50.5397016,44.2708119 51.3542688,43.6029314 51.9694924,42.7233493 C52.2687762,42.2951104 52.4460894,41.8389312 52.4455521,41.2946328 C52.4353434,34.8280657 52.4385672,28.3620358 52.4385672,21.8954687 C52.4385672,21.7310507 52.4385672,21.5666328 52.4385672,21.4016776 M85.5112834,70.166633 C85.4940894,71.3170209 85.0094329,72.2105731 84.0164778,72.8053793 C79.3144479,75.6214388 74.6097314,78.4331999 69.9060896,81.2465733 C65.1551642,84.0878866 60.4020896,86.9259762 55.654388,89.7726626 C54.4900299,90.470633 53.3525373,90.4700957 52.1860297,89.7721253 C42.7260894,84.1088417 33.2634627,78.4498566 23.7976119,72.7962448 C22.8831045,72.2503345 22.3275224,71.4959464 22.2474627,70.4213194 C22.2012537,69.8093193 22.3683582,69.2489015 22.6660299,68.7158868 C24.1581493,66.0492001 25.6438209,63.3792897 27.1311045,60.7104539 L50.2834029,19.1659164 C50.6353433,18.5345731 50.9776119,17.8978567 51.3402987,17.2729612 C52.248358,15.7072299 54.1257313,15.2741552 55.5571344,16.3391104 C55.9246568,16.612603 56.2346866,17.0150507 56.461433,17.4196478 C59.6519999,23.1087224 62.8232239,28.808006 65.9992837,34.5051403 C72.36,45.9155285 78.7207163,57.3259163 85.0841195,68.7341553 C85.3345075,69.182812 85.4994628,69.6486627 85.5112834,70.166633" id="Fill-91" fill="#FFFFFF"></path>
        </g>
        <g id="Group" transform="translate(0.000000, -0.000000)">
            <g id="Path-4">
                <use fill="black" fill-opacity="1" filter="url(#filter-2)" xlink:href="#path-1"></use>
                <use fill="#FA6566" fill-rule="evenodd" xlink:href="#path-1"></use>
            </g>
            <path d="M10.336,21.216 L15.646,9.12 L12.91,9.12 L9.94,16.338 L6.97,9.12 L4.234,9.12 L9.544,21.216 L10.336,21.216 Z M25.42,21 L25.42,18.948 L22.018,18.948 L22.414,18.66 C23.206,18.06 23.848,17.451 24.34,16.833 C24.832,16.215 25.078,15.498 25.078,14.682 C25.078,14.178 24.979,13.707 24.781,13.269 C24.583,12.831 24.304,12.453 23.944,12.135 C23.584,11.817 23.158,11.568 22.666,11.388 C22.174,11.208 21.634,11.118 21.046,11.118 C20.41,11.118 19.837,11.22 19.327,11.424 C18.817,11.628 18.385,11.898 18.031,12.234 C17.677,12.57 17.404,12.954 17.212,13.386 C17.02,13.818 16.924,14.256 16.924,14.7 C16.924,14.844 16.933,15.003 16.951,15.177 C16.969,15.351 17.002,15.522 17.05,15.69 L17.05,15.69 L19.444,15.69 C19.396,15.414 19.372,15.162 19.372,14.934 C19.372,14.502 19.51,14.13 19.786,13.818 C20.062,13.506 20.458,13.35 20.974,13.35 C21.478,13.35 21.871,13.506 22.153,13.818 C22.435,14.13 22.576,14.496 22.576,14.916 C22.576,15.192 22.519,15.447 22.405,15.681 C22.291,15.915 22.135,16.14 21.937,16.356 C21.739,16.572 21.505,16.788 21.235,17.004 C20.965,17.22 20.668,17.448 20.344,17.688 L20.344,17.688 L16.618,20.478 L16.618,21 L25.42,21 Z" id="V2" fill="#FFFFFF" fill-rule="nonzero"></path>
        </g>
    </g>
</svg>