<svg id="STRONG_Token" data-name="STRONG Token" xmlns="http://www.w3.org/2000/svg" viewBox="0 0 563.20001 563.20001"><defs><style>.cls-1{fill:#0e67ae;}.cls-2{fill:none;stroke:#0e67ae;stroke-miterlimit:10;stroke-width:26px;}</style></defs><path class="cls-1" d="M111.56,119.14h234a3.05985,3.05985,0,0,1,1.84.61l95.15,70a3.07,3.07,0,0,1-1.84,5.53H193.58a3.08,3.08,0,0,0-3.07,3.07v89.66a3.07,3.07,0,0,0,3.07,3.07H351.07a3.08,3.08,0,0,1,3.07,3.07v65.37a3.08,3.08,0,0,1-3.07,3.07H110.48a3.07,3.07,0,0,1-3.07007-3.06991L107.41,359.5l1.08-237.27a3.07,3.07,0,0,1,3.0499-3.08995Z"/><path class="cls-1" d="M448.88,450.84H205.42a2.99994,2.99994,0,0,1-1.84-.62l-89.49-66.16a3.07,3.07,0,0,1,1.83-5.53H367.01a3.07005,3.07005,0,0,0,3.08-3.06V278.14a3.08,3.08,0,0,0-3.08-3.07H211.75a3.06,3.06,0,0,1-3.07-3.04995q0-.01,0-.02005V214.34a3.06,3.06,0,0,1,3.05-3.07q.01,0,.02,0H449.96a3.07,3.07,0,0,1,3.07,3.07v.01l-1.07,233.43A3.08,3.08,0,0,1,448.88,450.84Z"/><circle class="cls-2" cx="281.60001" cy="281.59999" r="268.60001"/></svg>