<?xml version="1.0" encoding="UTF-8"?>
<svg width="300px" height="300px" viewBox="0 0 300 300" version="1.1" xmlns="http://www.w3.org/2000/svg" xmlns:xlink="http://www.w3.org/1999/xlink">
    <!-- Generator: Sketch 55.1 (78136) - https://sketchapp.com -->
    <title>sUSD_blue</title>
    <desc>Created with Sketch.</desc>
    <defs>
        <path d="M8.84695,1.01997297 L8.84695,24.482713 C8.84695,27.757496 9.48263364,30.223178 10.75402,31.879833 C12.0254064,33.5364879 14.028773,34.364803 16.76418,34.364803 C19.499587,34.364803 21.5125852,33.5364879 22.803235,31.879833 C24.0938848,30.223178 24.7392,27.757496 24.7392,24.482713 L24.7392,1.01997297 L33.4077,1.01997297 L33.4077,24.020393 C33.4077,29.7994219 31.9918592,34.2106811 29.160135,37.254303 C26.3284108,40.2979249 22.1964672,41.819713 16.76418,41.819713 C11.3318928,41.819713 7.20958073,40.2979249 4.39712,37.254303 C1.58465927,34.2106811 0.17845,29.7994219 0.17845,24.020393 L0.17845,1.01997297 L8.84695,1.01997297 Z M46.93056,28.296853 C47.0846674,30.3002497 47.9033509,31.9087219 49.386635,33.122318 C50.8699191,34.335914 52.844391,34.942703 55.31011,34.942703 C57.3520335,34.942703 59.0182952,34.5092823 60.308945,33.642428 C61.5995948,32.7755736 62.24491,31.5716273 62.24491,30.030553 C62.24491,28.9518009 61.8885419,28.0945912 61.175795,27.458898 C60.4630481,26.8232048 59.4613648,26.3223631 58.170715,25.956358 C56.8800652,25.5903528 54.8863302,25.137669 52.18945,24.598293 C49.5310967,24.0974438 47.2965724,23.4521286 45.48581,22.662328 C43.6750476,21.8725274 42.2014173,20.6974758 41.064875,19.137138 C39.9283327,17.5768002 39.36007,15.5060125 39.36007,12.924713 C39.36007,10.5745746 40.0053852,8.47489222 41.296035,6.62560297 C42.5866848,4.77631373 44.3781569,3.3219466 46.670505,2.26245797 C48.9628531,1.20296934 51.5537456,0.673232973 54.44326,0.673232973 C57.4098282,0.673232973 60.0777732,1.22223248 62.447175,2.32024797 C64.8165768,3.41826346 66.6851015,4.93042001 68.052805,6.85676297 C69.4205085,8.78310594 70.1236131,10.9598408 70.16214,13.387033 L61.66701,13.387033 C61.4743757,11.6533243 60.7423764,10.2567466 59.47099,9.19725797 C58.1996036,8.13776934 56.5237104,7.60803297 54.44326,7.60803297 C52.516917,7.60803297 50.9758658,8.01255893 49.82006,8.82162297 C48.6642542,9.63068702 48.08636,10.7864755 48.08636,12.289023 C48.08636,13.367775 48.4330965,14.2057217 49.12658,14.802888 C49.8200635,15.4000543 50.8024836,15.8816328 52.07387,16.247638 C53.3452564,16.6136431 55.3100967,17.0470638 57.96845,17.547913 C60.6653302,18.0487621 62.9383808,18.6748142 64.78767,19.426088 C66.6369592,20.1773617 68.1298527,21.313887 69.266395,22.835698 C70.4029373,24.3575089 70.9712,26.3897703 70.9712,28.932543 C70.9712,31.398262 70.2969901,33.6038916 68.94855,35.549498 C67.6001099,37.4951044 65.7219537,39.0265241 63.314025,40.143803 C60.9060963,41.2610819 58.199625,41.819713 55.19453,41.819713 C51.9582738,41.819713 49.0784343,41.2321872 46.554925,40.057118 C44.0314157,38.8820488 42.0569438,37.2543134 40.63145,35.173863 C39.2059562,33.0934126 38.4739569,30.7625725 38.43543,28.181273 L46.93056,28.296853 Z M76.1723,1.01997297 L90.21527,1.01997297 C94.2605902,1.01997297 97.8339028,1.87718273 100.935315,3.59162797 C104.036727,5.30607321 106.425357,7.69470266 108.101275,10.757588 C109.777193,13.8204733 110.61514,17.3167333 110.61514,21.246473 C110.61514,25.1762126 109.777193,28.6724727 108.101275,31.735358 C106.425357,34.7982433 104.036727,37.1868727 100.935315,38.901318 C97.8339028,40.6157632 94.2605902,41.472973 90.21527,41.472973 L76.1723,41.472973 L76.1723,1.01997297 Z M90.21527,34.249223 C93.8753216,34.249223 96.7166349,33.0645398 98.739295,30.695138 C100.761955,28.3257361 101.77327,25.1762126 101.77327,21.246473 C101.77327,17.3167333 100.761955,14.1672098 98.739295,11.797808 C96.7166349,9.42840613 93.8753216,8.24372297 90.21527,8.24372297 L84.8408,8.24372297 L84.8408,34.249223 L90.21527,34.249223 Z" id="path-1"></path>
    </defs>
    <g id="Page-1" stroke="none" stroke-width="1" fill="none" fill-rule="evenodd">
        <g id="sUSD_blue">
            <circle id="Oval-Copy" fill="#1E1A31" cx="150.389813" cy="150.27121" r="149.57633"></circle>
            <g id="Group-19" transform="translate(70.945946, 83.972973)">
                <g id="Group-Copy" transform="translate(0.000000, 0.148649)" fill="#FFFFFF">
                    <g id="Group-6" transform="translate(0.000000, 0.588569)">
                        <g id="Group-5" transform="translate(0.718512, 0.454804)">
                            <g id="Group-4" transform="translate(0.063063, 0.389683)">
                                <path d="M54.7891427,55.2176465 C58.8418196,55.2176465 62.1271631,58.50299 62.1271631,62.5556669 C62.1271631,66.6083439 58.8418196,69.8936874 54.7891427,69.8936874 L35.7418199,69.8936874 C17.2939751,69.8936874 2.33904201,54.9387545 2.33904201,36.4909095 C2.33904201,18.0430646 17.2939751,3.0881316 35.7418199,3.0881316 L84.8638627,3.0881316 C88.9165396,3.0881316 92.2018831,6.37347527 92.2018831,10.4261521 C92.2018831,14.4788289 88.9165396,17.7641726 84.8638627,17.7641726 L35.7418199,17.7641726 C25.3993287,17.7641726 17.015083,26.1484183 17.015083,36.4909095 C17.015083,46.8334007 25.3993287,55.2176465 35.7418199,55.2176465 L54.7891427,55.2176465 Z" id="Rectangle-2"></path>
                                <path d="M54.7891445,107.347161 C58.8418214,107.347161 62.1271649,110.632505 62.1271649,114.685181 C62.1271649,118.737858 58.8418214,122.023202 54.7891445,122.023202 L35.7418217,122.023202 C17.2939769,122.023202 2.33904382,107.068269 2.33904382,88.6204242 C2.33904382,70.1725794 17.2939769,55.2176465 35.7418217,55.2176465 L84.8638645,55.2176465 C88.9165414,55.2176465 92.2018849,58.50299 92.2018849,62.5556669 C92.2018849,66.6083439 88.9165414,69.8936874 84.8638645,69.8936874 L35.7418217,69.8936874 C25.3993305,69.8936874 17.0150848,78.2779332 17.0150848,88.6204242 C17.0150848,98.9629152 25.3993305,107.347161 35.7418217,107.347161 L54.7891445,107.347161 Z" id="Rectangle-2-Copy" transform="translate(47.270464, 88.620424) rotate(-180.000000) translate(-47.270464, -88.620424) "></path>
                                <polygon id="Path-3" fill-opacity="0.5" points="15.4753987 119.063077 3.54586805 110.514833 78.5779872 5.8035079 90.5075177 14.351752"></polygon>
                            </g>
                        </g>
                    </g>
                </g>
                <g id="USD" transform="translate(125.026424, 63.624064) rotate(-90.000000) translate(-125.026424, -63.624064) translate(69.526424, 42.624064)">
                    <g>
                        <use fill="#000000" xlink:href="#path-1"></use>
                        <use fill="#FFFFFF" xlink:href="#path-1"></use>
                    </g>
                </g>
            </g>
        </g>
    </g>
</svg>