<svg xmlns="http://www.w3.org/2000/svg" viewBox="0 0 126.75 126.75"><defs><style>.cls-1{fill:#1c9995;}</style></defs><title>Asset 1</title><g id="Layer_2" data-name="Layer 2"><g id="Layer_1-2" data-name="Layer 1"><path class="cls-1" d="M63.37,0a63.38,63.38,0,1,0,63.38,63.37A63.37,63.37,0,0,0,63.37,0ZM53.48,33.91a2.61,2.61,0,0,1-2.6,2.61h-5a2.6,2.6,0,0,0-2.6,2.61V56.71h3.43a2.19,2.19,0,0,1,2.19,2.19v7.54a2.18,2.18,0,0,1-2.19,2.18H43.32V86.41a2.59,2.59,0,0,0,2.6,2.6h5a2.61,2.61,0,0,1,2.6,2.61v8.64a2.6,2.6,0,0,1-2.6,2.6H29.39a2.59,2.59,0,0,1-2.6-2.6V68.62H24.1a2.18,2.18,0,0,1-2.18-2.18V58.9a2.19,2.19,0,0,1,2.18-2.19h2.69V25.28a2.6,2.6,0,0,1,2.6-2.61H50.88a2.61,2.61,0,0,1,2.6,2.61ZM62.39,107a2,2,0,0,1-2,2H59.18a2,2,0,0,1-2-2V18.45a2,2,0,0,1,2-2h1.21a2,2,0,0,1,2,2Zm11.1,0a2,2,0,0,1-2,2H70.28a2,2,0,0,1-2-2V18.45a2,2,0,0,1,2-2h1.21a2,2,0,0,1,2,2ZM104.1,88.23q-8.82,14.64-26.58,14.63h-.33V91.16a2.64,2.64,0,0,1,2.13-2.56Q86,87.19,89.7,80.53,93.6,73.48,93.6,62q0-15.52-6.47-21.55a14.74,14.74,0,0,0-7.74-3.58,2.63,2.63,0,0,1-2.2-2.57V22.67h1q18.09,0,26.47,13.4,6.15,9.82,6.15,24.8Q110.81,77.05,104.1,88.23Z"/></g></g></svg>