<svg id="Layer_1" data-name="Layer 1" xmlns="http://www.w3.org/2000/svg" viewBox="0 0 235.77021 235.77021"><defs><style>.cls-1{fill:#ff007a;}.cls-2{fill:#fff;fill-rule:evenodd;}</style></defs><circle class="cls-1" cx="117.88511" cy="117.88511" r="117.88511"/><path class="cls-2" d="M101.49212,96.124a6.642,6.642,0,0,1-1.11994,2.32519,9.08157,9.08157,0,0,1-3.72535,2.86191,14.345,14.345,0,0,1-4.15364,1.09739c-.29474.03745-.59988.06079-.8956.08334l-.04765.00353a4.25194,4.25194,0,0,0-3.94146,3.15823,10.76221,10.76221,0,0,0-.23964,1.33036c-.08236.67557-.12472,1.36742-.17061,2.11575-.03294.53692-.06765,1.10307-.12021,1.71334a22.75183,22.75183,0,0,1-2.1181,7.153c-.22375.473-.45162.93168-.67577,1.38213-1.2,2.414-2.2842,4.59487-1.97279,7.51562a8.67409,8.67409,0,0,0,2.91585,5.31359,16.31923,16.31923,0,0,0,2.68111,2.03966c2.78955,1.84689,5.86541,3.88321,4.852,9.01363-.82912,4.15679-7.69035,8.51888-17.33387,10.04279.93462-.14256-1.12112-3.6677-1.3531-4.06519l-.00059-.00118-.01373-.02353c-.26592-.41829-.5381-.8303-.81006-1.24172a28.632,28.632,0,0,1-2.17652-3.68084,18.85039,18.85039,0,0,1-1.69762-11.13233c.59806-3.39414,2.8318-6.10545,4.98247-8.71616l.00667-.00824c.34847-.4226.69459-.84284,1.0311-1.26289,2.87663-3.58848,5.89464-8.29,6.56257-12.948.05628-.40475.10667-.846.15962-1.31015.09472-.83109.19787-1.7359.35907-2.63758a14.85854,14.85854,0,0,1,1.4384-4.46877,9.07258,9.07258,0,0,1,1.894-2.45148,2.4552,2.4552,0,0,0,.47163-2.98429L70.90737,68.56574,92.98815,95.93827a2.74322,2.74322,0,0,0,4.22835.091,1.882,1.882,0,0,0,.059-2.36873c-1.02757-1.319-2.09711-2.65639-3.16156-3.98734q-.64419-.80539-1.2829-1.60627l-5.55655-6.9083L76.122,67.36559,53.75037,39.81931,77.55255,66.13014,89.424,79.31508l5.92209,6.60825q.81657.92364,1.63314,1.8365c1.42037,1.59235,2.84093,3.1849,4.2613,4.87451l.3222.39475.07079.61184A7.26777,7.26777,0,0,1,101.49212,96.124Z"/><path class="cls-2" d="M158.24548,105.40765l.02235.03216.00118.00354c-.00392-2.94487-1.81943-7.80448-5.4938-12.47838l-.08629-.11452a36.70932,36.70932,0,0,0-3.69-3.94774c-.24748-.24081-.51477-.47751-.786-.7144a30.64078,30.64078,0,0,0-5.533-3.86066l-.14139-.07119c-6.22075-3.40276-14.31585-5.15552-24.29726-3.18175a49.34161,49.34161,0,0,0-4.32268-4.63037,24.87265,24.87265,0,0,0-8.162-5.2071,20.739,20.739,0,0,0-9.40761-1.1525,24.36309,24.36309,0,0,1,8.80656,2.52639,26.34869,26.34869,0,0,1,7.07341,5.55028,86.348,86.348,0,0,1,5.77658,7.1846q.22562.29445.45123.58987l.001.00118a52.59239,52.59239,0,0,0,5.77639,6.724,19.89073,19.89073,0,0,0,4.075,2.97252c.393.2014.7899.39083,1.179.55654.38887.1657.7544.31984,1.14739.46182.75853.29611,1.54431.541,2.33028.76578a42.95146,42.95146,0,0,0,9.50586,1.39762q.65391.03441,1.30389.06589c1.12484.05569,2.23909.1108,3.33707.19061a23.26986,23.26986,0,0,1,4.44838.70263,9.882,9.882,0,0,1,5.45831,3.71084A15.04326,15.04326,0,0,1,158.24548,105.40765Z"/><path class="cls-2" d="M110.18926,105.77535c2.54246,4.49642-3.14372,5.88993-5.81208,6.14643-4.04344.39476-4.88059-1.94612-4.09069-4.88706a5.269,5.269,0,0,1,4.54663-3.987,5.63916,5.63916,0,0,1,5.35614,2.72759Z"/><path class="cls-2" d="M145.17271,117.98919c-10.10965-4.1211-20.68466-8.43162-19.11-20.53034,3.37511,3.62044,8.6736,4.37955,14.43646,5.20534,5.22749.74911,10.8368,1.55293,15.73955,4.59644,11.56906,7.17675,9.87924,21.11962,5.94955,26.25161C162.54267,125.06946,154.03653,121.60217,145.17271,117.98919Z"/><path class="cls-2" d="M103.67435,76.34668a11.032,11.032,0,0,0-6.81789-3.33178,17.6381,17.6381,0,0,0-.1808,1.92259,22.63623,22.63623,0,0,0,5.38751,15.17066,13.63385,13.63385,0,0,0,4.12227,3.158c.90383.442,3.301,1.5396,4.18894.55262a.6418.6418,0,0,0,.07471-.63949,4.675,4.675,0,0,0-.71362-1.18662,6.64345,6.64345,0,0,1-.54771-.81872c-.15021-.28258-.31082-.55791-.47143-.833a12.97818,12.97818,0,0,1-.83324-1.5949,24.72011,24.72011,0,0,1-1.24211-4.59135c-.06334-.31219-.12668-.62419-.19218-.93521C105.96541,80.81546,105.34847,78.28888,103.67435,76.34668Z"/><path class="cls-2" d="M139.44281,118.63946c-2.59679,7.2799,1.59176,13.42889,5.7554,19.54139,4.65743,6.8375,9.28387,13.6295,4.348,21.90834,9.59234-3.9791,14.14681-15.99959,10.16594-25.537-2.50835-6.0323-8.554-9.3027-14.16564-12.33816A66.88746,66.88746,0,0,1,139.44281,118.63946Z"/><path class="cls-2" d="M111.318,136.02726a21.73529,21.73529,0,0,0-4.87667,2.78288,35.34941,35.34941,0,0,1,10.61011-2.104c.65008-.03863,1.30408-.06883,1.964-.09922l.02078-.00119c1.1523-.05333,2.32205-.10726,3.5169-.20747a21.72017,21.72017,0,0,0,5.74128-1.18426,13.91015,13.91015,0,0,0,5.17141-3.23706,11.42311,11.42311,0,0,0,2.99841-5.42792,12.1135,12.1135,0,0,0-3.077-10.95466,18.226,18.226,0,0,1,1.20642,5.26221,12.26182,12.26182,0,0,1-.66812,4.95413,10.13753,10.13753,0,0,1-2.60914,3.94773,13.35262,13.35262,0,0,1-4.12227,2.566,30.5567,30.5567,0,0,1-6.981,1.56724h-.001c-1.13406.1659-2.28891.33514-3.44747.55654A28.34955,28.34955,0,0,0,111.318,136.02726Z"/><path class="cls-2" d="M141.30774,166.18955l-.00118.001-.01608.01294-.00294.00256c-.43849.35434-.88423.71439-1.36409,1.03777a14.66009,14.66009,0,0,1-1.9216,1.07385,9.93869,9.93869,0,0,1-4.45623,1.01445c-4.1811-.079-7.13616-3.2055-8.86539-6.73867-.453-.92541-.85207-1.87964-1.25133-2.83368l-.00078-.00176a32.71553,32.71553,0,0,0-2.13909-4.46761c-2.00024-3.28039-5.423-5.9213-9.43134-5.43183a5.48162,5.48162,0,0,0-4.075,2.36852c-2.38931,3.72261,1.0413,8.93737,5.41517,8.19924a4.76576,4.76576,0,0,0,1.08444-.3,3.93125,3.93125,0,0,0,.96286-.58811,4.39131,4.39131,0,0,0,1.33213-1.93434,4.54055,4.54055,0,0,0,.18473-2.45932,3.38008,3.38008,0,0,0-1.40684-2.10418,3.59433,3.59433,0,0,1,1.82728,1.97377,5.18552,5.18552,0,0,1,.25552,2.81485,5.58264,5.58264,0,0,1-1.24976,2.66052,5.46508,5.46508,0,0,1-1.179,1.00678,6.44178,6.44178,0,0,1-1.387.65911,6.86152,6.86152,0,0,1-3.07312.31984,8.161,8.161,0,0,1-3.96891-1.729c-.20355-.16178-.39926-.331-.58909-.50594a14.82008,14.82008,0,0,1-2.13849-2.28263c-.2769-.30611-.55831-.60791-.85227-.89854a17.00941,17.00941,0,0,0-4.88078-3.58043,18.14652,18.14652,0,0,0-3.9297-1.22388c-.67969-.14217-1.36742-.24473-2.05515-.3316-.03294-.00334-.07962-.0102-.13668-.01922-.03746-.00608-.07942-.01314-.12511-.021l-.1361-.02372c-.57419-.10022-1.50842-.26318-1.67314-.10963A43.06473,43.06473,0,0,1,96.98,146.53872a33.59253,33.59253,0,0,1,8.11078-3.48571,23.04387,23.04387,0,0,1,9.07365-.69891,17.63048,17.63048,0,0,1,4.5584,1.18426,14.21341,14.21341,0,0,1,4.17344,2.58973,13.02584,13.02584,0,0,1,2.9,4.06206,21.26118,21.26118,0,0,1,1.399,4.46486c.16139.82617.28278,1.73432.40868,2.674.573,4.28229,1.23446,9.22347,6.14212,10.08456a9.3746,9.3746,0,0,0,.94325.13413l.97835.02373a14.10038,14.10038,0,0,0,2.00024-.28826,21.42435,21.42435,0,0,0,3.97284-1.36174Q141.47452,166.05415,141.30774,166.18955Z"/></svg>