<svg width="149" height="144" viewBox="0 0 149 144" fill="none" xmlns="http://www.w3.org/2000/svg">
<path d="M148.694 1.04966L139.318 24.9097C139.178 25.1896 138.898 25.3995 138.619 25.3995H111.68C111.4 25.3995 111.19 25.2596 111.05 25.0497C110.91 24.8397 110.91 24.5599 111.05 24.35V24.28L120.776 0.559864C120.846 0.279981 121.126 0.0700684 121.476 0.0700684H147.995C148.205 0.0700684 148.484 0.21001 148.624 0.419923C148.764 0.559864 148.764 0.839748 148.694 1.04966Z" fill="#D81F27"/>
<path d="M128.893 48L46.7468 47.8601L37.3008 25.3294H85.6506C85.9305 25.3294 86.2104 25.1195 86.3503 24.8397L95.7264 0.979592C95.7964 0.769679 95.7964 0.489796 95.6564 0.349854C95.5165 0.139942 95.3066 0 95.0267 0H0.706018C0.496105 0.0699708 0.286193 0.209913 0.146251 0.419825C0.00630926 0.559767 -0.0636616 0.83965 0.0762801 1.04956L28.2046 72.3499C28.3445 72.6297 28.6244 72.7697 28.9043 72.7697H92.1579L74.5252 118.88L65.429 95.5102C65.3591 95.2303 65.0792 95.0204 64.7293 95.0204H38.2104C38.0005 95.0204 37.7206 95.1604 37.6506 95.3003C37.5107 95.5102 37.5107 95.7201 37.5806 96L56.3328 143.51C56.4028 143.79 56.6827 144 57.0325 144H91.878C92.1579 144 92.4378 143.79 92.5777 143.58L129.662 48.9796C129.732 48.7697 129.732 48.4898 129.592 48.3499C129.312 48.1399 129.102 48 128.893 48Z" fill="#D81F27"/>
</svg>
