<svg id="Layer_1" data-name="Layer 1" xmlns="http://www.w3.org/2000/svg" viewBox="0 0 50 50"><defs><style>.cls-1{fill:#645295;}</style></defs><title>ethfinex_xd</title><path class="cls-1" d="M21.91,17a8.17,8.17,0,0,0-6.4-3.09V17.5a4.61,4.61,0,0,1,4.62,4.61h0v7.06h3.56V22.11A8.12,8.12,0,0,0,21.91,17Z"/><path class="cls-1" d="M29.83,27.75h0V20.83H26.27v6.92a8.19,8.19,0,0,0,8.18,8.18V32.37A4.62,4.62,0,0,1,29.83,27.75Z"/><path class="cls-1" d="M25,47A22,22,0,1,1,47,25,22,22,0,0,1,25,47ZM25,6.56A18.44,18.44,0,1,0,43.44,25,18.46,18.46,0,0,0,25,6.56Z"/></svg>