<?xml version="1.0" encoding="utf-8"?>
<!-- Generator: Adobe Illustrator 21.0.0, SVG Export Plug-In . SVG Version: 6.00 Build 0)  -->
<svg version="1.1" id="Layer_1" xmlns="http://www.w3.org/2000/svg" xmlns:xlink="http://www.w3.org/1999/xlink" x="0px" y="0px"
	 viewBox="0 0 809.7 1000" style="enable-background:new 0 0 809.7 1000;" xml:space="preserve">
<style type="text/css">
	.st0{fill:#141927;}
</style>
<path class="st0" d="M384.6,172.7l-191.3,146c-8.3,6.3-13.1,16.1-13.1,26.5v309.6c0,10.4,4.9,20.2,13.1,26.5l191.3,146
	c11.9,9.1,28.5,9.1,40.4,0l191.3-146c8.3-6.3,13.1-16.1,13.1-26.5V345.2c0-10.4-4.9-20.2-13.1-26.5L425,172.7
	C413.1,163.6,396.5,163.6,384.6,172.7z M349.3,524.8l245.9,141.1L409.9,807.2L349.3,524.8z M410,192.8L595.1,334L349.3,475.2
	L410,192.8z M356.3,500l248.1-142.5v284.8L356.3,500z M205.3,341.1l176.2-134.4l-63,293.3l63,293.3L205.3,658.9V341.1z"/>
</svg>
