<?xml version="1.0" encoding="utf-8"?>
<!-- Generator: Adobe Illustrator 21.0.2, SVG Export Plug-In . SVG Version: 6.00 Build 0)  -->
<svg version="1.1" id="Layer_1" xmlns="http://www.w3.org/2000/svg" xmlns:xlink="http://www.w3.org/1999/xlink" x="0px" y="0px"
	 viewBox="0 0 449.3 639.7" style="enable-background:new 0 0 449.3 639.7;" xml:space="preserve">
<style type="text/css">
	.st0{fill:#34C699;}
</style>
<g>
	<path class="st0" d="M191.6,319.9l238.9,137c8.4,4.8,18.8-1.2,18.8-10.9V193.6c0-9.6-10.4-15.7-18.8-10.9L191.6,319.9z"/>
	<path class="st0" d="M416.8,123.8L258,2.6c-7.3-5.6-17.9-1.7-19.9,7.3l-58,269.8l235.3-135.1C423.2,140.2,423.9,129.3,416.8,123.8z
		"/>
	<path class="st0" d="M258,637.2l159-121.3c7.1-5.4,6.4-16.4-1.4-20.8L180.1,360l58,269.9C240,638.8,250.6,642.7,258,637.2z"/>
	<path class="st0" d="M130.5,319.9L193,29.1c2.4-11.4-10.6-19.7-19.9-12.6L13,138.7c-8.2,6.3-13,16-13,26.4v309.8
		c0,10.3,4.8,20.1,13,26.4l160.1,122.1c9.3,7.1,22.3-1.2,19.9-12.6L130.5,319.9z"/>
</g>
</svg>
