<svg xmlns="http://www.w3.org/2000/svg" width="103" height="103" viewBox="0 0 103 103">
    <path fill="#FF9008" d="M100.55 46.57l-7.64-8.307C91.587 36.824 89.71 36 87.755 36H60.503V7c0-3.86-3.141-7-7.002-7h-4.002c-3.862 0-7.002 3.14-7.002 7v5H14.566c-1.867 0-3.687.763-4.995 2.094L2.01 21.785c-2.615 2.662-2.686 6.898-.16 9.645l7.64 8.307C10.813 41.176 12.692 42 14.646 42h27.852v53.4c0 3.86 3.141 7 7.002 7h4.002c3.86 0 7.002-3.14 7.002-7V66h27.331c1.867 0 3.687-.763 4.995-2.094l7.562-7.691c2.615-2.662 2.686-6.898.16-9.645zM42.298 36H14.645c-.28 0-.548-.118-.737-.323l-7.64-8.308c-.361-.392-.352-.998.023-1.378l7.56-7.692c.188-.19.448-.299.715-.299h27.73v18zM53.5 96.4h-4.002c-.551 0-1-.448-1-1V7c0-.552.449-1 1-1h4.002c.551 0 1 .448 1 1v88.4c0 .552-.449 1-1 1zm42.608-44.39l-7.561 7.69c-.187.19-.447.3-.714.3h-27.33V42h27.251c.28 0 .548.118.737.323l7.64 8.308c.361.392.352.998-.023 1.378z"/>
</svg>
