<svg xmlns="http://www.w3.org/2000/svg" width="85" height="85" viewBox="0 0 85 85">
    <path fill="#FFF" d="M32.456 0C49.881 0 64.14 13.803 64.88 31.048 76.652 34.31 85 45.135 85 57.524c0 4.946-1.317 9.755-3.82 13.98l3.7 13.376-13.375-3.7C67.279 83.683 62.47 85 57.525 85c-12.39 0-23.216-8.349-26.477-20.122-5.336-.23-10.506-1.756-15.09-4.466L.12 64.792l4.382-15.839C1.553 43.968 0 38.29 0 32.456 0 14.56 14.56 0 32.456 0zm32.24 36.197c-1.72 14.912-13.587 26.779-28.498 28.498C39.23 73.723 47.787 80.02 57.524 80.02c4.363 0 8.595-1.251 12.238-3.618l.94-.611 7.035 1.946-1.946-7.036.611-.94c2.367-3.642 3.618-7.874 3.618-12.237 0-9.737-6.297-18.294-15.324-21.327zM32.456 4.98C17.306 4.98 4.98 17.306 4.98 32.456c0 5.258 1.49 10.368 4.308 14.776l.598.935-2.623 9.483 9.482-2.624.935.598c4.41 2.818 9.518 4.308 14.776 4.308 15.15 0 27.476-12.326 27.476-27.476 0-15.15-12.326-27.476-27.476-27.476zM35 45v5h-5v-5h5zm-2-30c5.514 0 10 4.456 10 9.934 0 2.78-1.186 5.452-3.252 7.33L35.5 36.127V40h-5v-6.06l5.872-5.34c1.05-.954 1.628-2.256 1.628-3.666 0-2.74-2.243-4.967-5-4.967s-5 2.228-5 4.967h-5C23 19.456 27.486 15 33 15z"/>
</svg>
