<svg xmlns="http://www.w3.org/2000/svg" width="96" height="96" viewBox="0 0 96 96">
    <g fill="none" fill-rule="evenodd">
        <g>
            <g>
                <g>
                    <g stroke="#23A7B5" stroke-linecap="round" stroke-linejoin="round" stroke-width="5">
                        <path d="M28 36H8c-4.42 0-8-3.58-8-8V8c0-4.42 3.58-8 8-8h20c4.42 0 8 3.58 8 8v20c0 4.42-3.58 8-8 8zM62 68H50c-3.312 0-6-2.688-6-6V50c0-3.312 2.688-6 6-6h12c3.312 0 6 2.688 6 6v12c0 3.312-2.688 6-6 6zM66 32H54c-3.312 0-6-2.688-6-6V14c0-3.312 2.688-6 6-6h12c3.312 0 6 2.688 6 6v12c0 3.312-2.688 6-6 6zM26 72H14c-3.312 0-6-2.688-6-6V54c0-3.312 2.688-6 6-6h12c3.312 0 6 2.688 6 6v12c0 3.312-2.688 6-6 6z" transform="translate(-672 -162) translate(620 110) translate(52 52) translate(12 12)"/>
                    </g>
                    <path d="M0 0H96V96H0z" transform="translate(-672 -162) translate(620 110) translate(52 52)"/>
                </g>
            </g>
        </g>
    </g>
</svg>
