<svg xmlns="http://www.w3.org/2000/svg" xmlns:xlink="http://www.w3.org/1999/xlink" width="1440" height="347" viewBox="0 0 1440 347">
    <defs>
        <linearGradient id="prefix__c" x1="3.764%" x2="97.257%" y1="39.894%" y2="60.329%">
            <stop offset="0%" stop-color="#424242"/>
            <stop offset="100%" stop-color="#202020"/>
        </linearGradient>
        <linearGradient id="prefix__f" x1="149.418%" x2="73.071%" y1="-22.255%" y2="97.172%">
            <stop offset="0%" stop-color="#FAD961"/>
            <stop offset="100%" stop-color="#F76B1C"/>
        </linearGradient>
        <linearGradient id="prefix__g" x1="63.721%" x2="-1.986%" y1="41.403%" y2="82.573%">
            <stop offset="0%"/>
            <stop offset="100%" stop-color="#F56D28"/>
        </linearGradient>
        <linearGradient id="prefix__j" x1="149.418%" x2="73.071%" y1="-22.431%" y2="97.286%">
            <stop offset="0%" stop-color="#FAD961"/>
            <stop offset="100%" stop-color="#F76B1C"/>
        </linearGradient>
        <linearGradient id="prefix__k" x1="149.418%" x2="73.071%" y1="-20.916%" y2="96.298%">
            <stop offset="0%" stop-color="#FAD961"/>
            <stop offset="100%" stop-color="#F76B1C"/>
        </linearGradient>
        <linearGradient id="prefix__l" x1="149.418%" x2="73.071%" y1="-64.29%" y2="124.615%">
            <stop offset="0%" stop-color="#FAD961"/>
            <stop offset="100%" stop-color="#F76B1C"/>
        </linearGradient>
        <linearGradient id="prefix__o" x1="149.418%" x2="73.071%" y1="-18.873%" y2="94.964%">
            <stop offset="0%" stop-color="#FAD961"/>
            <stop offset="100%" stop-color="#F76B1C"/>
        </linearGradient>
        <linearGradient id="prefix__p" x1="0%" x2="100.001%" y1="50.001%" y2="50.001%">
            <stop offset="0%"/>
            <stop offset="100%" stop-color="#F56D28"/>
        </linearGradient>
        <path id="prefix__a" d="M0 0H1440V360H0z"/>
        <path id="prefix__e" d="M229.523 273L425 77 310.477 77 115 273z"/>
        <path id="prefix__i" d="M80.536 350L218 212 137.464 212 0 350z"/>
        <path id="prefix__n" d="M427.925 144L479 94 449.075 94 398 144z"/>
        <filter id="prefix__d" width="144.2%" height="169.9%" x="-22.1%" y="-18.6%" filterUnits="objectBoundingBox">
            <feOffset dy="32" in="SourceAlpha" result="shadowOffsetOuter1"/>
            <feGaussianBlur in="shadowOffsetOuter1" result="shadowBlurOuter1" stdDeviation="17.5"/>
            <feColorMatrix in="shadowBlurOuter1" values="0 0 0 0 0 0 0 0 0 0 0 0 0 0 0 0 0 0 0.903463724 0"/>
        </filter>
        <filter id="prefix__h" width="162.8%" height="199.3%" x="-31.4%" y="-26.4%" filterUnits="objectBoundingBox">
            <feOffset dy="32" in="SourceAlpha" result="shadowOffsetOuter1"/>
            <feGaussianBlur in="shadowOffsetOuter1" result="shadowBlurOuter1" stdDeviation="17.5"/>
            <feColorMatrix in="shadowBlurOuter1" values="0 0 0 0 0.331578351 0 0 0 0 0.153449871 0 0 0 0 0.0603702582 0 0 0 0.446787587 0"/>
        </filter>
        <filter id="prefix__m" width="253.1%" height="348%" x="-76.5%" y="-80%" filterUnits="objectBoundingBox">
            <feOffset dy="22" in="SourceAlpha" result="shadowOffsetOuter1"/>
            <feGaussianBlur in="shadowOffsetOuter1" result="shadowBlurOuter1" stdDeviation="17"/>
            <feColorMatrix in="shadowBlurOuter1" values="0 0 0 0 0 0 0 0 0 0 0 0 0 0 0 0 0 0 0.776524257 0"/>
        </filter>
    </defs>
    <g fill="none" fill-rule="evenodd" transform="translate(0 -13)">
        <mask id="prefix__b" fill="#fff">
            <use xlink:href="#prefix__a"/>
        </mask>
        <use fill="#EEEFF0" xlink:href="#prefix__a"/>
        <g mask="url(#prefix__b)">
            <g>
                <path fill="url(#prefix__c)" d="M375.557 0.266L49 326.572 746.959 326.572 746.959 0.266z" transform="translate(834 41)"/>
                <g transform="translate(834 41)">
                    <use fill="#000" filter="url(#prefix__d)" xlink:href="#prefix__e"/>
                    <use fill="url(#prefix__f)" xlink:href="#prefix__e"/>
                </g>
                <path fill="#FFF" d="M141.098 314L270 185 235.902 185 107 314z" opacity=".6" transform="translate(834 41)"/>
                <path fill="url(#prefix__g)" style="mix-blend-mode:screen" d="M303.65 175L414 65 349.35 65 239 175z" transform="translate(834 41)"/>
                <g transform="translate(834 41)">
                    <use fill="#000" filter="url(#prefix__h)" xlink:href="#prefix__i"/>
                    <use fill="url(#prefix__j)" xlink:href="#prefix__i"/>
                </g>
                <path fill="url(#prefix__k)" d="M224.619 79L282 22 248.384 22 191 79z" transform="translate(834 41)"/>
                <path fill="url(#prefix__l)" d="M198.599 165L264 99 246.403 99 181 165z" transform="translate(834 41)"/>
                <g transform="translate(834 41)">
                    <use fill="#000" filter="url(#prefix__m)" xlink:href="#prefix__n"/>
                    <use fill="url(#prefix__o)" xlink:href="#prefix__n"/>
                </g>
                <path fill="#FFF" d="M466.211 68L499 36 479.789 36 447 68z" opacity=".2" transform="translate(834 41)"/>
                <path fill="url(#prefix__p)" style="mix-blend-mode:screen" d="M246.257 288L373 162 298.746 162 172 288z" transform="translate(834 41)"/>
                <path fill="#FFF" d="M286.784 125L382 29 326.216 29 231 125z" opacity=".2" transform="translate(834 41)"/>
                <path d="M304.376 334L375 263 333.624 263 263 334z" transform="translate(834 41)"/>
            </g>
        </g>
    </g>
</svg>
