<?xml version="1.0" encoding="UTF-8"?>
<svg width="73px" height="72px" viewBox="0 0 73 72" version="1.1" xmlns="http://www.w3.org/2000/svg" xmlns:xlink="http://www.w3.org/1999/xlink">
    <title>Group Copy</title>
    <g id="screens" stroke="none" stroke-width="1" fill="none" fill-rule="evenodd">
        <g id="Group-17" transform="translate(1.000000, 0.000000)">
            <path d="M15.458827,19.8350306 L37.0138658,7.31063864 C37.7768829,6.86729337 38.7548327,7.12643854 39.198178,7.88945557 C39.3398423,8.13326619 39.4144634,8.41022377 39.4144634,8.69220319 L39.4144634,29.4774192 C39.4144634,30.3598873 38.6990816,31.0752691 37.8166134,31.0752691 C37.6211417,31.0752691 37.427329,31.0394023 37.2448026,30.9694502 L15.6897637,22.7086262 C14.8657377,22.3928238 14.4537411,21.4688103 14.7695436,20.6447843 C14.9001141,20.3040856 15.1433529,20.0183345 15.458827,19.8350306 Z" id="Path-2-Copy-7" fill="#FFD01F"></path>
            <path d="M42.1832377,2.26395455 L42.1832377,25.170864 C42.1832377,26.0533322 42.8986194,26.7687139 43.7810876,26.7687139 C44.2660287,26.7687139 44.7247284,26.5484831 45.0279793,26.1700564 L59.3140089,8.34252566 C59.8658476,7.65388637 59.7549488,6.64828028 59.0663095,6.09644158 C58.9271854,5.98495498 58.7703842,5.89753783 58.6024031,5.83781238 L44.3163735,0.758433616 C43.4848973,0.462803343 42.5711969,0.897192336 42.2755666,1.72866859 C42.2144651,1.90051995 42.1832377,2.08156407 42.1832377,2.26395455 Z" id="Path-3-Copy-7" fill="#DDC017"></path>
            <path d="M2.17548869,43.8549559 L34.1548465,35.5455479 C35.008953,35.3236198 35.5214348,34.4513214 35.2995067,33.5972149 C35.1696154,33.0973189 34.8060994,32.6910395 34.3236662,32.5065782 L3.95365134,20.894419 C3.12938121,20.5792544 2.2056868,20.9919659 1.89052212,21.816236 C1.83629524,21.958059 1.80255986,22.1068872 1.79033374,22.2582306 L0.180990772,42.1797978 C0.109932993,43.0594004 0.76538811,43.830063 1.64499075,43.9011208 C1.82316079,43.915514 2.00248308,43.8999091 2.17548869,43.8549559 Z" id="Path-4-Copy-7" stroke="#185063" fill="#003243"></path>
            <path d="M34.1471752,41.827683 L27.1601671,61.5628073 C26.8656519,62.3946791 25.9525347,62.8302927 25.1206629,62.5357774 C24.9032835,62.4588166 24.7051379,62.3357158 24.5398358,62.1749303 L10.0206187,48.0524281 C9.38803724,47.4371309 9.37402555,46.4255253 9.98932276,45.7929438 C10.192587,45.5839697 10.4491489,45.4345867 10.7312256,45.3609713 L32.2374507,39.7483492 C33.0913198,39.5255094 33.9641649,40.0370596 34.1870048,40.8909287 C34.267701,41.2001376 34.2538271,41.5264399 34.1471752,41.827683 Z" id="Path-5-Copy-7" fill="#0A4B61"></path>
            <path d="M45.0941342,31.0542289 L60.1432931,12.2614932 C60.6949011,11.5726691 61.70047,11.4614335 62.3892941,12.0130415 C62.6824845,12.2478274 62.8835904,12.5783967 62.9573006,12.9467061 L67.5242448,35.7664565 C67.6974202,36.6317659 67.1363348,37.4736241 66.2710254,37.6467995 C66.0614222,37.6887477 65.8455328,37.6882127 65.6361401,37.6452262 L46.0200371,33.6182114 C45.1555967,33.4407493 44.5986907,32.5961205 44.7761528,31.73168 C44.8270249,31.4838753 44.9360076,31.2516906 45.0941342,31.0542289 Z" id="Path-6-Copy-7" fill="#91C45D"></path>
            <path d="M47.9529451,37.1026698 L69.9063704,41.6259711 C70.7303316,41.7957407 71.2815241,42.5753149 71.1668597,43.4087331 L68.8257567,60.4246415 C68.705477,61.2988742 67.8992654,61.9100739 67.0250327,61.7897942 C66.6543313,61.7387919 66.3132873,61.5593044 66.061358,61.2826233 L46.4490357,39.7434136 C45.8549058,39.0909111 45.9022261,38.0803157 46.5547286,37.4861857 C46.9326399,37.1420822 47.4523593,36.9995287 47.9529451,37.1026698 Z" id="Path-7-Copy-7" fill="#2CA7AD"></path>
            <path d="M36.0855812,44.380981 L27.4693775,68.6068859 C27.1736644,69.4383327 27.6079625,70.3520763 28.4394093,70.6477893 C28.7119822,70.7447328 29.0057609,70.7658557 29.2893989,70.708904 L38.3190544,68.8958411 C39.0762468,68.7438046 39.616323,68.071962 39.6020787,67.2997881 L39.188627,44.8869461 C39.1723508,44.0046281 38.4438962,43.3025625 37.5615782,43.3188387 C36.8964449,43.3311085 36.3085037,43.7541969 36.0855812,44.380981 Z" id="Path-8-Copy-7" fill="#17708D"></path>
            <path d="M42.2615,45.1170925 L42.5995335,63.3102852 C42.6159271,64.1926011 43.3444751,64.8945697 44.2267909,64.8781761 C44.3137023,64.8765613 44.400337,64.8678569 44.4858325,64.8521497 L58.5108459,62.2754733 C59.3787878,62.1160149 59.9531271,61.2831425 59.7936688,60.4152007 C59.7392303,60.1188887 59.6021297,59.8440042 59.398184,59.62226 L45.0351371,44.0057437 C44.4377498,43.3562221 43.4269303,43.3139589 42.7774087,43.9113463 C42.440821,44.2209176 42.2530047,44.6598689 42.2615,45.1170925 Z" id="Path-9-Copy" fill="#3FA3C4"></path>
        </g>
    </g>
</svg>