<svg xmlns="http://www.w3.org/2000/svg" width="80" height="103" viewBox="0 0 80 103">
    <path fill="#FFF" d="M71.691 48.449L57.2 33.957V9c0-4.963-4.037-9-9-9H9C4.037 0 0 4.037 0 9v84.4c0 4.963 4.037 9 9 9h61.2c1.43 0 2.66-1.008 2.941-2.41l5.59-27.829c1.747-8.693-.885-17.557-7.04-23.712zM9 6h39.2c1.654 0 3 1.346 3 3v38.696c-3.68-3.63-9.591-3.61-13.246.045-3.662 3.656-3.68 9.592-.024 13.272l11.491 11.946c-2.491 1.86-5.718 5.105-8.036 10.441H6V9c0-1.654 1.346-3 3-3zM6 93.4v-4h33.446c-.476 2.104-.812 4.43-.96 7H9c-1.654 0-3-1.346-3-3zm66.85-22.42L67.742 96.4H44.5c.432-6.372 2.266-11.712 5.369-15.567 2.572-3.196 5.19-4.342 5.4-4.43 1.962-.702 2.664-3.25 1.093-4.883-14.185-14.747-14.141-14.702-14.167-14.727-1.317-1.318-1.338-3.471 0-4.808 1.323-1.322 3.473-1.326 4.8-.01 6.342 6.488 3.258 3.375 14.357 14.473 1.171 1.172 3.07 1.172 4.242 0 1.172-1.171 1.172-3.07 0-4.242L57.2 53.812v-11.37l10.249 10.25c4.731 4.731 6.75 11.568 5.4 18.288z"/>
</svg>
