<svg xmlns="http://www.w3.org/2000/svg" width="96" height="96" viewBox="0 0 96 96">
    <g fill="none" fill-rule="evenodd">
        <g>
            <g>
                <g>
                    <path d="M0 0L96 0 96 96 0 96z" transform="translate(-1052 -414) translate(1000 362) translate(52 52)"/>
                    <path stroke="#FFF" stroke-linecap="round" stroke-linejoin="round" stroke-width="5" d="M28.332 87.252c-2.952 0-5.748-.652-8.26-1.816L8 88l2.524-12.096c-1.172-2.52-1.828-5.328-1.828-8.288C8.696 56.784 17.476 48 28.312 48s19.616 8.784 19.616 19.616c0 10.832-8.784 19.616-19.616 19.616" transform="translate(-1052 -414) translate(1000 362) translate(52 52)"/>
                    <path stroke="#FFF" stroke-linecap="round" stroke-linejoin="round" stroke-width="5" d="M26.448 48.076C24.876 44.656 24 40.908 24 36.96 24 20.892 38.392 8 56 8s32 12.892 32 28.96c0 9.496-5.048 17.856-12.796 23.128.004 3.024-.004 7.1-.004 11.38l-12.556-6.184c-2.148.412-4.368.636-6.644.636-2.844 0-5.592-.368-8.224-1M19.181 67.858c.079.079.079.205 0 .283-.078.078-.204.078-.282 0-.079-.078-.079-.204 0-.283.078-.078.204-.078.282 0M28.181 67.858c.079.079.079.205 0 .283-.078.078-.204.078-.282 0-.079-.078-.079-.204 0-.283.078-.078.204-.078.282 0M37.181 67.858c.079.079.079.205 0 .283-.078.078-.204.078-.282 0-.079-.078-.079-.204 0-.283.078-.078.204-.078.282 0" transform="translate(-1052 -414) translate(1000 362) translate(52 52)"/>
                    <path stroke="#FFF" stroke-linecap="round" stroke-linejoin="round" stroke-width="5" d="M56 40.176c0-2.628 1.624-4.052 3.252-5.148 1.592-1.072 3.184-2.468 3.184-5.04 0-3.556-2.88-6.436-6.436-6.436s-6.436 2.88-6.436 6.436M56 49.832c-.22 0-.4.18-.4.4 0 .22.18.4.4.4.22 0 .4-.18.4-.4 0-.22-.18-.4-.4-.4" transform="translate(-1052 -414) translate(1000 362) translate(52 52)"/>
                </g>
            </g>
        </g>
    </g>
</svg>
