<?xml version="1.0" encoding="UTF-8"?>
<svg width="1024px" height="1024px" viewBox="0 0 1024 1024" version="1.1" xmlns="http://www.w3.org/2000/svg" xmlns:xlink="http://www.w3.org/1999/xlink">
    <!-- Generator: Sketch 63.1 (92452) - https://sketch.com -->
    <title>Kyber_app_icon Copy</title>
    <desc>Created with Sketch.</desc>
    <defs>
        <linearGradient x1="21.8841254%" y1="-5.93726574%" x2="85.0727787%" y2="156.354245%" id="linearGradient-1">
            <stop stop-color="#FFB046" offset="0%"></stop>
            <stop stop-color="#F52880" offset="100%"></stop>
        </linearGradient>
    </defs>
    <g id="Kyber_app_icon-Copy" stroke="none" stroke-width="1" fill="none" fill-rule="evenodd">
        <g id="Group-4" transform="translate(231.404229, 112.000000)" fill="url(#linearGradient-1)">
            <g id="Group-2" transform="translate(0.595771, 0.000000)">
                <g id="Group" transform="translate(0.800000, 0.000000)">
                    <path d="M223.859807,449.289801 L516.405916,617.957973 C525.935691,623.556167 526.834727,637.100185 518.02418,643.962487 L518.02418,643.962487 L320.416206,795.294316 C311.425852,802.156618 298.120129,797.280772 295.962444,786.084384 L295.962444,786.084384 L223.859807,449.289801 Z M215.04926,20.5764829 C226.556913,11.7277244 242.73955,22.0211781 239.68283,36.2875438 L239.68283,36.2875438 L162.006174,399.267228 L239.68283,762.066325 C242.73955,776.332691 226.556913,786.626144 215.04926,777.777386 L215.04926,777.777386 L16.1826367,625.362036 C5.93363344,617.596799 1.70530257e-13,605.316889 1.70530257e-13,592.495219 L1.70530257e-13,592.495219 L1.70530257e-13,205.85865 C1.70530257e-13,193.036979 5.93363344,180.75707 16.1826367,172.991833 L16.1826367,172.991833 Z M534.926045,228.07084 C545.354855,222.111472 558.300965,229.515535 558.300965,241.614858 L558.300965,241.614858 L558.300965,556.739011 C558.300965,568.657747 545.354855,576.242397 534.926045,570.283029 L534.926045,570.283029 L238.064566,399.267228 Z M295.782637,12.450072 C298.120129,1.25368377 311.246045,-3.80274964 320.416206,3.24013975 L320.416206,3.24013975 L517.844373,154.571968 C526.65492,161.434271 525.755884,174.978289 516.046302,180.576483 L516.046302,180.576483 L223.68,349.244654 Z" id="Combined-Shape"></path>
                </g>
            </g>
        </g>
    </g>
</svg>